<?xml version="1.0" encoding="UTF-8"?>
<svg xmlns="http://www.w3.org/2000/svg" viewBox="30 30 160 160">
  <defs>
    <style>
      .cls-1 {
        fill: #fff;
      }
      .cls-3 {
        fill: #231f20;
      }
      .cls-6 {
        fill: #003d93;
      }
    </style>
  </defs>
  <!-- Rubik's Cube Icon - Cropped for Favicon -->
  <g id="cube-logo">
    <!-- Blue faces -->
    <path class="cls-6" d="M67.93,78.46l4.79,26.86c.28,1.59,1.64,2.73,3.21,2.71l26.31-.41c1.92-.03,3.39-1.78,3.14-3.74l-3.62-27.78c-.22-1.7-1.67-2.94-3.33-2.86l-27.47,1.32c-1.94.09-3.36,1.93-3.01,3.89Z"/>
    <path class="cls-6" d="M115.45,143.32l23.75.64c1.91.05,3.44-1.61,3.29-3.57l-2.2-27.98c-.14-1.73-1.56-3.06-3.25-3.03l-24.95.38c-1.92.03-3.38,1.77-3.14,3.72l3.4,26.95c.2,1.61,1.52,2.83,3.1,2.88Z"/>
    <path class="cls-6" d="M78.85,139.71c.27,1.54,1.56,2.66,3.08,2.71l24.81.67c1.98.05,3.53-1.72,3.27-3.74l-3.47-26.59c-.22-1.66-1.6-2.89-3.23-2.86l-25.89.4c-1.99.03-3.47,1.89-3.11,3.9l4.55,25.52Z"/>
    <path class="cls-6" d="M72.98,142.17c2.04.05,3.61-1.83,3.24-3.9l-4.5-25.14c-.28-1.58-1.64-2.73-3.21-2.7l-22.19.34c-2.06.03-3.56,2.02-3.07,4.08l5.71,24.24c.34,1.45,1.59,2.48,3.04,2.52l20.98.56Z"/>
    <path class="cls-6" d="M111.13,147.97c-.21-1.6-1.52-2.81-3.09-2.86l-24.41-.75c-2.04-.06-3.62,1.83-3.25,3.89l3.73,20.96c.27,1.51,1.52,2.63,3.01,2.7l23.46,1.11c2,.1,3.6-1.7,3.33-3.74l-2.78-21.32Z"/>
    <path class="cls-6" d="M173.68,78.77l-5.95,5.56c-.45.42-.7,1.01-.7,1.63l.03,30.01c0,.45.54.67.84.34l5.53-6.1c.36-.4.56-.92.57-1.46l.49-29.59c0-.44-.5-.67-.81-.38Z"/>
    <path class="cls-6" d="M157.97,127.27l7.23-7.98c.56-.62.87-1.43.86-2.28l-.25-30.01c0-.34-.39-.51-.64-.29l-8.02,7.49c-.7.66-1.09,1.6-1.05,2.58l1.21,30.23c.01.35.43.5.66.25Z"/>
    <path class="cls-6" d="M144.75,141.83l10.23-11.11c.8-.87,1.22-2.03,1.17-3.22l-1.3-30.05c-.02-.38-.45-.56-.72-.31l-11.01,10.13c-.99.91-1.52,2.25-1.41,3.62l2.3,30.67c.03.39.49.55.75.27Z"/>
    
    <!-- White faces -->
    <path class="cls-1" d="M44.28,107.74l22.73-.35c.72-.01,1.4-.35,1.86-.92.46-.57.65-1.32.52-2.05l-4.75-26.57c-.21-1.2-1.23-2.07-2.41-2.07h-.12s-24.01,1.16-24.01,1.16c-.73.04-1.41.4-1.85,1.01s-.59,1.37-.42,2.11l6.07,25.76c.27,1.13,1.25,1.93,2.38,1.93Z"/>
    <path class="cls-1" d="M105.04,76.44l3.54,28.07c.16,1.25,1.2,2.2,2.43,2.2l25.38-.39c.69-.01,1.32-.31,1.78-.83s.68-1.2.62-1.91l-2.4-28.95c-.11-1.29-1.18-2.31-2.44-2.31h-.12s-26.47,1.28-26.47,1.28c-.69.03-1.32.35-1.77.9-.45.55-.64,1.24-.55,1.94Z"/>
    <path class="cls-1" d="M80.72,167.74l-3.72-20.8c-.21-1.16-1.19-2.03-2.34-2.06l-20.51-.63h-.08c-.75,0-1.46.35-1.92.96-.47.61-.63,1.4-.46,2.15l4.83,20.51c.26,1.08,1.19,1.87,2.27,1.92l19.4.92h.12c.73,0,1.41-.33,1.88-.91.47-.58.66-1.33.53-2.07Z"/>
    <path class="cls-1" d="M144.02,171.01l-1.62-21.81c-.1-1.29-1.12-2.29-2.37-2.33l-23.34-.71h-.08c-.7,0-1.37.31-1.84.86-.47.54-.68,1.27-.59,1.99l2.71,21.47c.15,1.21,1.13,2.14,2.32,2.19l22.25,1.06h.12c.69,0,1.33-.28,1.8-.81.47-.52.7-1.2.65-1.9Z"/>
    <path class="cls-1" d="M146.84,171.69l9.24-12.21c.54-.71.81-1.6.78-2.49l-.93-24.19-9.98,10.89c-.72.78-1.08,1.84-1,2.91l1.88,25.09Z"/>
    <path class="cls-1" d="M165.53,121.99l-6.77,7.51c-.47.53-.73,1.24-.7,1.96l.95,23.82,6.17-8.36c.35-.48.54-1.07.54-1.67l-.2-23.26Z"/>
    <path class="cls-1" d="M172.98,135.85l.37-22.54-5.34,5.92c-.27.3-.42.69-.42,1.1l.07,23.22,4.99-6.75c.2-.28.31-.6.32-.95Z"/>
    <path class="cls-1" d="M139.42,72.89l2.29,31.62,11.05-9.84c.86-.77,1.33-1.88,1.28-3.05l-1.28-29.55-11.57,7.28c-1.19.75-1.87,2.11-1.76,3.54Z"/>
    <path class="cls-1" d="M155.28,62.1l1.17,29.33,7.86-7.29c.56-.52.88-1.26.87-2.04l-.23-27.74-8.42,5.32c-.81.51-1.3,1.44-1.26,2.43Z"/>
    <path class="cls-1" d="M173.99,74.66l.43-26.28-6.16,3.89c-.46.29-.75.82-.75,1.38l.05,27.56,5.89-5.37c.33-.3.53-.73.53-1.19Z"/>
    <path class="cls-1" d="M139.88,53.15l23.25-1.13c.96-.05,1.91-.34,2.74-.85l4.9-3.02-23.06,1.25c-.88.05-1.76.31-2.53.74l-5.3,3.02Z"/>
    <path class="cls-1" d="M110.95,54.56l23.16-1.13c.9-.04,1.8-.31,2.59-.76l5.13-2.96-22.23,1.2c-.75.04-1.48.23-2.16.55l-6.5,3.1Z"/>
    <path class="cls-1" d="M88.56,55.65l16.47-.8c.75-.04,1.48-.22,2.16-.54l6.54-3.08-15.21.82c-.61.03-1.21.16-1.78.39l-8.19,3.21Z"/>
    <path class="cls-1" d="M131.73,55.47l-23.34,1.08c-1.17.05-2.31.34-3.38.84l-11.46,5.42,25.8-1.47c1.33-.08,2.65-.46,3.82-1.11l8.57-4.77Z"/>
    <path class="cls-1" d="M161.28,54.1l-22.99,1.06c-1.38.06-2.76.46-3.97,1.15l-7.92,4.49,23.8-1.22c1.46-.08,2.9-.52,4.15-1.28l6.92-4.2Z"/>
    <path class="cls-1" d="M124.61,63.15c-1.69.09-3.37.59-4.84,1.43l-11.34,6.47s-.04.02-.03.07c.01.05.03.05.05.05l24.46-1.23c1.84-.09,3.64-.66,5.22-1.63l10.25-6.33s.04-.02.03-.07c-.01-.04-.03-.04-.05-.04v-.28s0,0,0,0v.29s-23.74,1.29-23.74,1.29Z"/>
    <path class="cls-1" d="M116.98,63.56l-26.08,1.42c-1.44.08-2.84.44-4.15,1.07l-14.15,6.8s-.04.02-.03.07c.01.05.03.05.05.05l28.01-1.41c1.68-.08,3.34-.57,4.82-1.39l11.58-6.49s.04-.02.03-.07c-.01-.05-.03-.05-.05-.05v-.28s0,0,0,0v.29Z"/>
    <path class="cls-1" d="M83.23,65.4l-21.22,1.16c-1.18.06-2.34.32-3.44.76l-18.04,7.16s-.04.02-.04.07c0,.05.03.05.05.05l24.14-1.18c1.45-.07,2.85-.42,4.16-1.05l14.42-6.84s.04-.02.03-.07c-.01-.05-.03-.05-.05-.05v-.28s0,0,0,0v.29Z"/>
    <path class="cls-1" d="M66.12,64.36l20.63-1.2c1.12-.07,2.21-.34,3.23-.82l11.78-5.49-17.01.79c-.95.04-1.89.24-2.79.59l-15.85,6.13Z"/>
    
    <!-- Black outlines -->
    <path class="cls-3" d="M44.33,108.52l22.69-.35c1.99-.03,3.47-1.89,3.11-3.9l-4.75-26.57c-.28-1.57-1.62-2.7-3.16-2.7-.05,0-.1,0-.15,0l-24.01,1.16c-2.02.1-3.45,2.06-2.97,4.07l6.07,25.76c.35,1.48,1.64,2.52,3.12,2.52.02,0,.03,0,.05,0ZM36.25,77.94c.44-.6,1.11-.97,1.85-1.01l24.01-1.16h.12c1.18,0,2.2.87,2.41,2.06l4.75,26.57c.13.73-.06,1.48-.52,2.05-.46.57-1.14.91-1.86.92l-22.73.35c-1.14,0-2.12-.79-2.38-1.93l-6.07-25.76c-.17-.73-.02-1.5.42-2.11Z"/>
    <path class="cls-3" d="M104.29,76.54l3.54,28.07c.21,1.65,1.57,2.88,3.18,2.88.02,0,.03,0,.05,0l25.34-.39c1.86-.03,3.31-1.67,3.15-3.58l-2.4-28.95c-.14-1.72-1.54-3.02-3.2-3.02-.05,0-.1,0-.15,0l-26.47,1.28c-1.88.09-3.28,1.81-3.03,3.72ZM133.83,72.32h.12c1.26,0,2.33,1.01,2.44,2.3l2.4,28.95c.06.7-.16,1.38-.62,1.91s-1.09.82-1.78.83l-25.38.39c-1.23,0-2.27-.94-2.43-2.2l-3.54-28.07c-.09-.71.11-1.4.55-1.94.45-.55,1.07-.87,1.77-.9l26.47-1.28Z"/>
    <path class="cls-3" d="M77.75,146.79c-.27-1.53-1.55-2.66-3.06-2.7l-20.51-.63s-.07,0-.1,0c-2.07,0-3.61,1.99-3.12,4.08l4.83,20.51c.34,1.43,1.55,2.45,2.97,2.52l19.4.92c.05,0,.1,0,.15,0,1.99,0,3.52-1.86,3.15-3.9l-3.72-20.8ZM78.2,170.71l-19.4-.92c-1.08-.05-2.02-.84-2.27-1.92l-4.83-20.51c-.18-.76-.01-1.54.46-2.15.47-.61,1.17-.96,1.92-.96h.08s20.51.63,20.51.63c1.15.04,2.13.9,2.34,2.06l3.72,20.8c.13.74-.06,1.49-.53,2.07-.47.58-1.15.91-1.88.91h-.12Z"/>
    <path class="cls-3" d="M140.06,146.09l-23.34-.71s-.07,0-.1,0c-1.93,0-3.43,1.74-3.18,3.73l2.71,21.47c.2,1.59,1.48,2.8,3.04,2.87l22.25,1.06c.05,0,.1,0,.15,0,1.86,0,3.34-1.63,3.2-3.55l-1.62-21.81c-.12-1.68-1.47-3-3.11-3.05ZM141.47,173.72l-22.25-1.06c-1.19-.06-2.17-.98-2.32-2.19l-2.71-21.47c-.09-.72.12-1.44.59-1.99.47-.54,1.14-.86,1.84-.86h.08s23.34.72,23.34.72c1.26.04,2.28,1.04,2.37,2.33l1.62,21.81c.05.71-.18,1.38-.65,1.9-.47.52-1.11.81-1.8.81h-.12Z"/>
  </g>
</svg>
