<?xml version="1.0" encoding="UTF-8"?>
<svg xmlns="http://www.w3.org/2000/svg" viewBox="0 0 220 242">
  <defs>
    <style>
      .cls-1 {
        fill: #fff;
      }

      .cls-2 {
        fill: none;
      }

      .cls-3 {
        fill: #231f20;
      }

      .cls-4 {
        fill: #58595b;
      }

      .cls-5 {
        font-family: Arial-BoldMT, Arial;
        font-size: 10px;
        font-weight: 700;
        letter-spacing: .05em;
      }

      .cls-6 {
        fill: #003d93;
      }

      .cls-7 {
        fill: #d1d3d4;
      }
    </style>
  </defs>
  <g id="Layer_2" data-name="Layer 2">
    <rect class="cls-7" width="220" height="220"/>
    <rect class="cls-1" x="10" y="10" width="200" height="200"/>
    <g>
      <circle class="cls-1" cx="110" cy="110" r="100"/>
      <path class="cls-3" d="M110,9c-2.02,0-4.05.06-6.06.18l.06,1c.81-.05,1.63-.09,2.45-.12h0s.03,0,.04,0h0c.08,0,.16,0,.24,0h0s.02,0,.04,0h0s.02,0,.04,0h0c.05,0,.11,0,.16,0h0s.02,0,.04,0h0s.02,0,.03,0h0s.02,0,.03,0c0,0,0,0,0,0,.05,0,.1,0,.15,0,0,0,0,0,0,0,.01,0,.02,0,.03,0,0,0,0,0,.01,0,0,0,.02,0,.03,0,0,0,0,0,.01,0,.01,0,.02,0,.03,0,0,0,0,0,.01,0,.01,0,.02,0,.03,0,0,0,0,0,0,0,.02,0,.05,0,.07,0h0s.02,0,.03,0c0,0,0,0,.01,0,0,0,.02,0,.03,0,0,0,0,0,.02,0,0,0,.02,0,.03,0,0,0,0,0,.02,0,0,0,.02,0,.03,0,0,0,.01,0,.02,0,0,0,.02,0,.03,0,0,0,0,0,.01,0,.02,0,.04,0,.06,0,0,0,0,0,0,0,0,0,.02,0,.03,0,0,0,.01,0,.02,0,0,0,.02,0,.03,0,0,0,.01,0,.02,0,0,0,.02,0,.02,0,0,0,.01,0,.02,0,0,0,.02,0,.03,0,0,0,.01,0,.02,0,0,0,.02,0,.03,0,0,0,.01,0,.02,0,.02,0,.03,0,.05,0,0,0,.01,0,.02,0,0,0,.02,0,.02,0,0,0,.02,0,.02,0,0,0,.02,0,.02,0,0,0,.01,0,.02,0,0,0,.02,0,.02,0,0,0,.01,0,.02,0,0,0,.02,0,.02,0,0,0,.01,0,.02,0,0,0,.02,0,.02,0,0,0,.01,0,.02,0,.02,0,.03,0,.05,0,0,0,.01,0,.02,0,0,0,.02,0,.02,0,.01,0,.01,0,.02,0,0,0,.02,0,.02,0,0,0,.01,0,.02,0,0,0,.02,0,.02,0,0,0,.01,0,.02,0,0,0,.02,0,.02,0,0,0,.01,0,.02,0,0,0,.02,0,.02,0,0,0,.02,0,.02,0,.01,0,.02,0,.03,0,0,0,.02,0,.03,0,0,0,.01,0,.02,0,.01,0,.01,0,.02,0,0,0,.01,0,.02,0,0,0,.02,0,.02,0,0,0,.01,0,.02,0,0,0,.02,0,.02,0,0,0,.01,0,.02,0,.01,0,.02,0,.03,0,0,0,.01,0,.02,0,.01,0,.02,0,.03,0,0,0,.02,0,.02,0,.01,0,.02,0,.03,0,0,0,.01,0,.02,0,.01,0,.02,0,.03,0,0,0,.01,0,.02,0,0,0,.02,0,.02,0,0,0,.01,0,.02,0,0,0,.02,0,.03,0,0,0,.01,0,.02,0,.01,0,.02,0,.03,0,0,0,.01,0,.02,0,.01,0,.03,0,.04,0,0,0,0,0,.01,0,.01,0,.03,0,.04,0,0,0,.01,0,.02,0,.01,0,.02,0,.03,0,0,0,.01,0,.02,0,0,0,.02,0,.03,0,0,0,.01,0,.02,0,.01,0,.02,0,.03,0,0,0,.01,0,.02,0,.01,0,.02,0,.03,0,0,0,.01,0,.01,0,.01,0,.03,0,.04,0,0,0,0,0,.01,0,.01,0,.03,0,.04,0,0,0,0,0,.02,0,.01,0,.02,0,.03,0,0,0,.01,0,.02,0,.01,0,.02,0,.03,0,0,0,.01,0,.02,0,.01,0,.02,0,.03,0,0,0,.01,0,.02,0,.01,0,.02,0,.03,0,0,0,0,0,.01,0,.01,0,.03,0,.04,0,0,0,0,0,0,0,.01,0,.03,0,.04,0,0,0,0,0,.01,0,.01,0,.02,0,.03,0,0,0,.01,0,.02,0,.01,0,.02,0,.03,0,0,0,.01,0,.02,0,.01,0,.02,0,.03,0,0,0,.01,0,.02,0,.01,0,.02,0,.03,0,0,0,.01,0,.02,0,.01,0,.03,0,.04,0h0v-1h0ZM95.9,9.98c-1.99.28-4,.62-5.97,1.02l.2.98c1.95-.39,3.92-.73,5.91-1.01l-.14-.99h0ZM82.08,12.91c-1.93.55-3.87,1.18-5.77,1.85l.33.94s0,0,0,0c.01,0,.02,0,.04-.01,0,0,0,0,0,0,.03-.01.05-.02.08-.03,0,0,0,0,.01,0,0,0,.02,0,.03-.01,0,0,.01,0,.02,0,0,0,.02,0,.03,0,0,0,.01,0,.02,0,0,0,.02,0,.03,0,0,0,0,0,.02,0,.01,0,.03,0,.04-.01,0,0,.01,0,.02,0,0,0,.01,0,.02,0,0,0,.02,0,.02,0,0,0,.01,0,.02,0,0,0,.02,0,.02,0,0,0,0,0,.02,0,0,0,.02,0,.03,0,0,0,0,0,0,0,.02,0,.04-.02.06-.02h0s.02,0,.03-.01c0,0,0,0,.01,0,0,0,.02,0,.03,0,0,0,0,0,0,0,.01,0,.02,0,.03-.01h0s.07-.03.11-.04h0s.02,0,.03-.01h0s.02,0,.03-.01h0s.1-.03.14-.05h0s.02,0,.03-.01h0c.06-.02.12-.04.18-.06h0s.02,0,.03-.01h0c.06-.02.12-.04.18-.06h0c.06-.02.12-.04.18-.06h0s.02,0,.03-.01h0s.09-.03.14-.05h0s.02,0,.03-.01h0s.02,0,.03-.01h0s.07-.02.1-.04h0s.02,0,.03-.01c0,0,0,0,.01,0,0,0,.02,0,.03,0,0,0,0,0,.01,0,0,0,.02,0,.03,0h0s.04-.02.07-.02h0s.02,0,.03,0c0,0,.01,0,.01,0,0,0,.02,0,.02,0,0,0,0,0,.02,0,0,0,.02,0,.02,0,0,0,.01,0,.02,0,0,0,.02,0,.02,0,0,0,0,0,.02,0,.01,0,.03,0,.04-.01,0,0,.01,0,.02,0,0,0,.01,0,.02,0,0,0,.01,0,.02,0,0,0,.01,0,.02,0,0,0,.01,0,.02,0,0,0,.01,0,.02,0,0,0,.02,0,.03,0,0,0,.01,0,.02,0,.01,0,.02,0,.04-.01,0,0,0,0,.01,0,0,0,.02,0,.03,0,0,0,.01,0,.02,0,0,0,.02,0,.03,0,0,0,.01,0,.02,0,0,0,.02,0,.03,0,0,0,0,0,.01,0,.01,0,.03,0,.04-.01,0,0,0,0,0,0,.01,0,.03,0,.04-.01,0,0,0,0,.01,0,0,0,.02,0,.03-.01,0,0,0,0,.01,0,0,0,.02,0,.03-.01,0,0,0,0,0,0,.03,0,.06-.02.09-.03,0,0,0,0,0,0,.01,0,.03,0,.04-.01,0,0,0,0,0,0,.01,0,.03,0,.04-.01,0,0,0,0,0,0,.06-.02.12-.04.18-.06,0,0,0,0,0,0,.73-.23,1.46-.45,2.2-.67,0,0,0,0,0,0,.02,0,.02,0,.04-.01,0,0,0,0,0,0,.02,0,.02,0,.04-.01,0,0,0,0,0,0,.03,0,.06-.02.09-.02,0,0,0,0,.01,0,0,0,.02,0,.03,0,0,0,.01,0,.02,0,0,0,.02,0,.03,0,0,0,.01,0,.02,0,0,0,.01,0,.02,0,0,0,0,0,.01,0l-.28-.96h0ZM68.81,17.75c-1.84.82-3.67,1.71-5.45,2.64l.46.89c.75-.39,1.51-.78,2.28-1.15h0s.02-.01.03-.02h0s.09-.04.13-.07h0s.02-.01.03-.02c0,0,0,0,0,0,0,0,.02,0,.03-.01h0s.06-.03.09-.05c0,0,0,0,0,0,0,0,.02,0,.03-.01,0,0,0,0,0,0,0,0,.02,0,.03-.01,0,0,0,0,.01,0,.03-.01.06-.03.08-.04,0,0,.01,0,.01,0,0,0,.01,0,.02-.01,0,0,.01,0,.02,0,0,0,.01,0,.02-.01,0,0,.01,0,.02,0,0,0,.01,0,.02,0,0,0,.02,0,.02-.01.01,0,.02-.01.03-.02,0,0,.02,0,.02,0,0,0,.01,0,.02,0,0,0,.01,0,.02,0,0,0,.01,0,.02,0,0,0,.01,0,.02,0,0,0,.01,0,.02,0,0,0,.02,0,.03-.01,0,0,.01,0,.02,0,0,0,.02-.01.03-.01,0,0,.01,0,.02,0,0,0,.01,0,.02-.01,0,0,.01,0,.02,0,0,0,.01,0,.02-.01,0,0,.01,0,.02,0,.01,0,.02,0,.03-.01,0,0,0,0,.01,0,.01,0,.03-.01.04-.02,0,0,0,0,.01,0,0,0,.02,0,.03-.01,0,0,0,0,.01,0,0,0,.02,0,.03-.01,0,0,0,0,.01,0,.01,0,.02,0,.03-.01,0,0,0,0,0,0,.01,0,.03-.01.04-.02,0,0,0,0,0,0,.01,0,.02,0,.03-.02,0,0,0,0,.01,0,.01,0,.02,0,.03-.01,0,0,0,0,.01,0,.01,0,.02-.01.03-.02,0,0,0,0,0,0,.03-.01.05-.02.08-.04,0,0,0,0,0,0,.01,0,.02-.01.03-.02,0,0,0,0,0,0,.01,0,.02-.01.04-.02,0,0,0,0,0,0,.03-.01.05-.03.08-.04,0,0,0,0,0,0,.01,0,.03-.01.04-.02,0,0,0,0,0,0,.01,0,.03-.01.04-.02h0c.48-.22.97-.45,1.45-.66l-.41-.91h0ZM56.35,24.41c-1.7,1.07-3.4,2.2-5.03,3.38l.58.81c.23-.17.47-.33.7-.5h0s.08-.06.12-.09h0c.06-.04.12-.09.18-.13h0c.05-.04.1-.07.15-.11h0c1.25-.87,2.52-1.71,3.82-2.52l-.53-.85h0ZM44.94,32.74c-1.54,1.3-3.06,2.66-4.51,4.04l.69.72c1.01-.96,2.05-1.91,3.1-2.83h0s.02-.02.03-.02h0s.07-.07.11-.1h0s.02-.02.03-.03h0s.07-.06.11-.1c0,0,0,0,0,0,0,0,.01-.01.02-.02,0,0,0,0,0,0,0,0,.01-.01.02-.02,0,0,0,0,0,0,.01-.01.03-.02.04-.04,0,0,0,0,0,0,0,0,.01-.01.02-.02,0,0,0,0,.01-.01,0,0,.01-.01.02-.02,0,0,0,0,.01-.01,0,0,.01-.01.02-.02,0,0,0,0,0,0,.01-.01.03-.02.04-.03,0,0,0,0,.01,0,0,0,.01-.01.02-.02,0,0,.01,0,.01-.01,0,0,.01,0,.02-.01,0,0,0,0,.01-.01,0,0,.01,0,.02-.01,0,0,.01,0,.02-.01,0,0,.02-.02.03-.02,0,0,.01-.01.02-.01,0,0,.01,0,.02-.01,0,0,.01,0,.02-.01,0,0,.01,0,.02-.01,0,0,.01,0,.02-.01,0,0,.01,0,.02-.01,0,0,.01-.01.02-.02,0,0,.02-.01.02-.02,0,0,.01-.01.02-.02,0,0,.01,0,.02-.01,0,0,0,0,.02-.01,0,0,.01,0,.02-.01,0,0,.01-.01.02-.01,0,0,.01,0,.02-.01,0,0,.02-.01.02-.02,0,0,.01-.01.02-.02,0,0,.02-.01.02-.02,0,0,0,0,.01-.01,0,0,.01-.01.02-.02,0,0,0,0,.01-.01,0,0,.01-.01.02-.02,0,0,0,0,.01-.01,0,0,.02-.01.02-.02,0,0,.01-.01.02-.02,0,0,.02-.01.02-.02,0,0,0,0,.01-.01,0,0,.01-.01.02-.02,0,0,0,0,.01-.01,0,0,.01,0,.02-.02,0,0,0,0,.01-.01,0,0,.02-.01.02-.02,0,0,.01,0,.02-.01,0,0,.02-.01.02-.02,0,0,0,0,.01-.01,0,0,.01-.01.02-.02,0,0,0,0,.01-.01,0,0,.01,0,.02-.02,0,0,0,0,.01-.01,0,0,.02-.01.02-.02,0,0,0,0,.01,0l-.64-.76h0ZM34.8,42.58c-1.34,1.5-2.66,3.05-3.91,4.63l.78.62s0,0,0,0c.03-.03.06-.07.09-.11,0,0,0,0,0,0,0,0,.02-.02.03-.03,0,0,0,0,0,0,.03-.03.06-.07.09-.11,0,0,0,0,0,0,0,0,.02-.02.03-.03,0,0,0,0,0,0,.03-.03.06-.07.09-.11,0,0,0,0,0,0,0,0,.02-.02.02-.03,0,0,0,0,0,0,.03-.03.06-.07.08-.11,0,0,0,0,0,0,0,0,.02-.02.02-.03,0,0,0,0,0,0,.02-.02.04-.05.06-.07,0,0,0,0,0,0,0,0,.02-.02.03-.03,0,0,0,0,0,0,0,0,.01-.02.02-.03,0,0,0,0,0,0,.02-.02.04-.05.06-.07,0,0,0,0,0,0,0,0,.02-.02.02-.03,0,0,0,0,0,0,0,0,.01-.02.02-.03,0,0,0,0,0,0,0,0,.02-.02.03-.03,0,0,0,0,0,0,0,0,.02-.03.03-.04,0,0,0,0,0,0,0,0,.02-.02.03-.03,0,0,0,0,0,0,0,0,.01-.02.02-.03,0,0,0,0,0,0,0,0,.02-.02.03-.03,0,0,0,0,0,0,0,0,.02-.03.03-.04,0,0,0,0,0,0,0,0,.02-.02.02-.03,0,0,0,0,0,0,0,0,.01-.02.02-.02,0,0,0,0,0,0,0,0,.02-.02.03-.03,0,0,0,0,0,0,0,0,.02-.03.03-.03,0,0,0,0,0,0,0,0,.02-.02.02-.03,0,0,0,0,0,0,0,0,.01-.02.02-.03,0,0,0,0,0,0,.02-.02.04-.05.06-.07,0,0,0,0,0,0,0,0,.02-.02.03-.03,0,0,0,0,0,0,0,0,.02-.02.02-.03,0,0,0,0,0,0,.02-.02.04-.04.06-.07,0,0,0,0,0,0,0,0,.02-.02.03-.03,0,0,0,0,0,0,0,0,.02-.02.02-.03,0,0,0,0,0,0,0,0,.02-.02.03-.03,0,0,0,0,0,0,0-.01.02-.02.03-.04,0,0,0,0,0,0,0,0,.02-.02.03-.03,0,0,0,0,0,0,0,0,.01-.02.02-.03,0,0,0,0,0,0,.02-.02.04-.05.06-.07,0,0,0,0,0,0,0,0,.02-.02.03-.03,0,0,0,0,0,0,0,0,.01-.02.02-.03,0,0,0,0,0,0,.02-.02.04-.05.06-.07,0,0,0,0,0,0,0,0,.02-.02.03-.03,0,0,0,0,0,0,0,0,.01-.02.02-.03,0,0,0,0,0,0,.01-.01.02-.02.03-.03h0s.02-.03.03-.04c0,0,0,0,0,0,0,0,.02-.02.03-.03,0,0,0,0,0,0,0,0,.02-.02.02-.03,0,0,0,0,0,0,.03-.03.06-.07.09-.1,0,0,0,0,0,0,0,0,.02-.02.02-.03,0,0,0,0,0,0,.03-.03.06-.07.09-.1,0,0,0,0,0,0,0,0,.02-.02.02-.03,0,0,0,0,0,0,.03-.03.06-.07.09-.1,0,0,0,0,0,0,0,0,.02-.02.02-.03,0,0,0,0,0,0,.02-.02.04-.05.06-.07h0s.02-.02.03-.03c0,0,0,0,0,0,0,0,.02-.02.02-.03,0,0,0,0,0,0,.03-.03.06-.07.09-.1,0,0,0,0,0,0,0,0,.02-.02.02-.03,0,0,0,0,0,0,.02-.02.04-.05.06-.07,0,0,0,0,0,0,0,0,.02-.02.03-.03,0,0,0,0,0,0,0,0,.02-.02.03-.03,0,0,0,0,0,0,.03-.03.06-.07.09-.1,0,0,0,0,0,0,0,0,.02-.02.03-.03,0,0,0,0,0,0,.03-.03.06-.07.09-.1,0,0,0,0,0,0,0,0,.02-.02.02-.03,0,0,0,0,0,0,0,0,.02-.02.03-.03,0,0,0,0,0,0,0,0,.02-.03.03-.04,0,0,0,0,0,0,0,0,.02-.02.03-.03,0,0,0,0,0,0,0,0,.01-.02.02-.03,0,0,0,0,0,0,0,0,.02-.02.03-.03,0,0,0,0,0,0,0,0,.02-.02.03-.03,0,0,0,0,0,0,0,0,.02-.02.03-.03,0,0,0,0,0,0,0,0,.01-.02.02-.02,0,0,0,0,0,0,0,0,.02-.02.02-.03,0,0,0,0,0,0,0,0,.02-.02.03-.03,0,0,0,0,0,0,0,0,.02-.02.02-.03,0,0,0,0,0,0,0,0,.01-.01.02-.02,0,0,0,0,0-.01,0,0,.01-.02.02-.03,0,0,0,0,0,0,0,0,.02-.02.03-.03,0,0,0,0,0,0,0,0,.01-.01.02-.02,0,0,0,0,.01-.01,0,0,.01-.01.02-.02,0,0,0,0,.01-.01,0,0,.01-.02.02-.02,0,0,0,0,0,0,0,0,.02-.02.03-.03,0,0,0,0,0,0,0,0,.01-.01.02-.02,0,0,0,0,.01-.01,0,0,.01-.01.02-.02,0,0,0,0,.01-.01,0,0,.01-.01.02-.02,0,0,0,0,.01-.01,0,0,.02-.02.03-.03,0,0,0,0,.01-.01,0,0,.01-.01.02-.02,0,0,0,0,.01-.01,0,0,.01-.01.02-.02,0,0,0-.01.01-.01,0,0,0-.01.02-.02,0,0,0,0,.01-.01,0,0,.02-.02.03-.03,0,0,.01-.01.02-.02,0,0,0,0,.01-.01,0,0,.01-.01.02-.02,0,0,0,0,.01-.01,0,0,.01-.01.02-.02,0,0,0,0,0-.01.02-.02.04-.05.06-.07,0,0,0,0,0,0,0,0,.01-.01.02-.02,0,0,0,0,0,0,0,0,.01-.02.02-.02,0,0,0,0,0,0,.03-.04.06-.07.1-.11h0s0-.01.01-.02l-.74-.67h0ZM26.12,53.73c-1.12,1.67-2.21,3.4-3.23,5.13l.86.51c.94-1.6,1.93-3.18,2.96-4.73h0s.05-.08.08-.12c0,0,0,0,0,0,0-.01.01-.02.02-.03,0,0,0,0,0,0,0-.01.01-.02.02-.03,0,0,0,0,0,0,.02-.03.03-.05.05-.07,0,0,0,0,0-.01,0,0,.01-.02.02-.03,0,0,0,0,0-.01,0,0,0-.01.01-.02,0,0,0,0,0-.01l-.83-.56h0ZM19.07,65.97c-.88,1.81-1.71,3.67-2.48,5.53l.92.38c.14-.35.29-.69.44-1.04,0,0,0,0,0,0,.02-.04.04-.08.05-.13,0,0,0,0,0,0,0-.01,0-.02.02-.04,0,0,0,0,0,0,0-.01.01-.02.02-.04,0,0,0,0,0,0,.01-.03.02-.05.04-.08,0,0,0,0,0,0,0-.01,0-.02.01-.03,0,0,0,0,0-.01,0,0,0-.02.01-.03,0,0,0,0,0-.01,0-.01,0-.02.01-.03,0,0,0,0,0,0,0-.01.01-.03.02-.04,0,0,0,0,0-.01,0-.01,0-.02.01-.03,0,0,0-.01,0-.02,0,0,0-.02.01-.02,0,0,0-.01,0-.02,0,0,0-.02.01-.03,0,0,0,0,0-.01,0-.01.01-.03.02-.04,0,0,0,0,0-.01,0,0,0-.02.01-.02,0,0,0-.01,0-.02,0,0,0-.01,0-.02,0,0,0-.01,0-.02,0,0,0-.01,0-.02,0,0,0-.01,0-.02,0,0,0-.02.01-.03,0,0,0-.01,0-.02,0,0,0-.02.01-.03,0,0,0-.01,0-.02,0,0,0-.01,0-.02,0,0,0-.01,0-.02,0,0,0-.02,0-.02,0,0,0-.01,0-.02,0,0,0-.01,0-.02,0-.01.01-.02.02-.04,0,0,0-.01,0-.02,0,0,0-.02.01-.02,0,0,0,0,0-.02,0,0,0-.01,0-.02,0,0,0-.01,0-.02,0,0,0-.01,0-.02,0,0,0-.01,0-.02,0,0,0-.01,0-.02,0-.01,0-.02.01-.03,0,0,0-.02,0-.02,0,0,0-.01,0-.02,0,0,0-.01,0-.02,0,0,0-.01,0-.02,0,0,0-.01,0-.02,0,0,0-.01,0-.02,0,0,0-.01,0-.02,0,0,0-.01,0-.02,0-.01.01-.03.02-.04,0,0,0-.01,0-.02,0,0,0-.01,0-.02,0,0,0-.01,0-.02,0,0,0-.01,0-.02,0,0,0-.01,0-.02,0,0,0-.01,0-.02,0,0,0-.01,0-.02,0-.01.01-.03.02-.04,0,0,0-.01,0-.02,0,0,0-.01,0-.02,0,0,0-.01,0-.02,0,0,0-.01,0-.02,0,0,0-.01,0-.02,0,0,0-.01,0-.02,0,0,0-.01,0-.02,0-.01,0-.02.01-.03,0,0,0-.01.01-.02,0,0,0-.01,0-.02,0,0,0,0,0-.02,0,0,0-.01,0-.02,0,0,0-.01,0-.02,0,0,0-.01,0-.02,0,0,0-.01,0-.02,0,0,0-.01,0-.02,0-.01.01-.02.02-.04,0,0,0-.01,0-.02,0,0,0-.01,0-.02,0,0,0-.01,0-.02,0,0,0-.02,0-.02,0,0,0-.01,0-.02,0,0,0-.01,0-.02,0,0,0-.01,0-.02,0,0,0-.02.01-.02,0,0,0-.02.01-.03,0,0,0-.02.01-.02,0,0,0-.01,0-.02,0,0,0-.01,0-.02,0,0,0-.01,0-.02,0,0,0-.01,0-.02,0,0,0-.01,0-.02,0,0,0-.02,0-.02,0,0,0-.02.01-.02,0,0,0-.02.01-.03,0,0,0-.01,0-.02,0,0,0-.01,0-.02,0,0,0-.01,0-.02,0,0,0-.01,0-.02,0,0,0-.01.01-.02,0,0,0-.01,0-.02,0,0,0-.01,0-.02,0,0,0-.02.01-.02,0-.01,0-.02.01-.03,0,0,0-.01,0-.02,0,0,0-.01,0-.02,0,0,0-.01,0-.02,0,0,0-.01.01-.02,0,0,0,0,0-.02,0,0,0-.02.01-.02,0,0,0,0,0-.01,0-.02.01-.03.02-.05,0,0,0-.01,0-.01,0,0,0-.02.01-.02,0,0,0,0,0-.01,0,0,0-.02.01-.02,0,0,0,0,0-.01,0,0,0-.02.01-.03,0,0,0,0,0,0,0-.02.02-.04.03-.06h0s0-.02.01-.03c0,0,0,0,0,0,0,0,0-.02.01-.03,0,0,0,0,0,0,0,0,0-.02.01-.03h0s.04-.09.06-.14h0c.21-.45.42-.89.63-1.33l-.9-.44h0ZM13.82,79.09c-.61,1.91-1.18,3.87-1.68,5.82l.97.25c.04-.17.09-.35.14-.52h0s0-.03,0-.04h0s.03-.1.04-.15h0s0-.03,0-.04h0s0-.03,0-.04h0s.02-.08.03-.11h0s0-.02,0-.03c0,0,0,0,0-.01,0,0,0-.02,0-.03,0,0,0,0,0-.01,0,0,0-.02,0-.03,0,0,0,0,0,0,0-.03.02-.06.03-.1,0,0,0,0,0-.01,0,0,0-.02,0-.03,0,0,0,0,0-.01,0,0,0-.02,0-.03,0,0,0-.01,0-.02,0,0,0-.02,0-.02,0,0,0-.01,0-.02,0-.02,0-.03.01-.05,0,0,0-.01,0-.02,0,0,0-.01,0-.02,0,0,0-.01,0-.02,0,0,0-.01,0-.02,0,0,0-.02,0-.02,0,0,0-.01,0-.02,0,0,0-.01,0-.02,0,0,0-.01,0-.02,0-.01,0-.03.01-.04,0,0,0-.01,0-.02,0,0,0-.02,0-.03,0,0,0-.01,0-.02,0,0,0-.02,0-.02,0,0,0-.01,0-.02,0,0,0-.02,0-.03,0,0,0-.01,0-.02,0-.02,0-.02.01-.04,0,0,0,0,0,0,0-.01,0-.03.01-.04,0,0,0,0,0-.01,0,0,0-.02,0-.03,0,0,0,0,0-.01,0-.01,0-.02,0-.03,0,0,0,0,0-.01,0-.01,0-.02,0-.03,0,0,0,0,0,0,0-.03.02-.06.02-.09,0,0,0,0,0,0,0,0,0-.03,0-.04,0,0,0,0,0,0,0-.01,0-.02,0-.04,0,0,0,0,0,0,0-.03.02-.06.02-.09,0,0,0,0,0,0,0-.01,0-.03.01-.04,0,0,0,0,0,0,0-.01,0-.02.01-.04,0,0,0,0,0,0,0-.01,0-.03.01-.04,0,0,0,0,0,0,0-.03.02-.06.03-.09,0,0,0,0,0,0,0-.02,0-.03.01-.04,0,0,0,0,0,0,0-.02,0-.03.01-.04,0,0,0,0,0,0,.02-.06.03-.12.05-.18,0,0,0,0,0,0,.18-.62.36-1.23.54-1.84,0,0,0,0,0,0,0-.01,0-.03.01-.04,0,0,0,0,0,0,.01-.04.03-.09.04-.13,0,0,0,0,0,0,0-.02,0-.02.01-.04,0,0,0,0,0,0,0-.02,0-.02.01-.04,0,0,0,0,0,0,.01-.04.03-.09.04-.13,0,0,0,0,0,0,0-.01,0-.02.01-.03,0,0,0,0,0,0,0,0,0-.03.01-.03,0,0,0,0,0,0,0-.03.02-.06.03-.08,0,0,0-.01,0-.02,0,0,0-.02,0-.03,0,0,0-.01,0-.02,0,0,0-.02,0-.02,0,0,0-.01,0-.02,0,0,0-.02,0-.03,0,0,0,0,0-.01,0,0,0-.02.01-.03,0,0,0-.02,0-.03,0,0,0-.01,0-.02,0,0,0-.02,0-.02,0,0,0,0,0-.02,0,0,0-.02,0-.02,0,0,0,0,0-.01,0,0,0-.02,0-.03h0s.02-.07.03-.1c0,0,0,0,0,0,0-.01,0-.02,0-.03h0s0-.03.01-.04h0c.02-.07.04-.14.07-.21l-.95-.31h0ZM10.46,92.81c-.34,1.98-.62,4-.84,6l.99.11c.03-.23.05-.47.08-.7h0s.01-.09.02-.14c0,0,0,0,0,0,0-.01,0-.03,0-.04,0,0,0,0,0,0,0,0,0-.02,0-.03,0,0,0,0,0-.01,0,0,0-.02,0-.03,0,0,0,0,0-.01,0-.01,0-.02,0-.04,0,0,0,0,0,0,0-.01,0-.03,0-.04,0,0,0,0,0-.01,0-.01,0-.02,0-.03,0,0,0-.01,0-.02,0,0,0-.01,0-.02,0,0,0-.01,0-.02,0,0,0-.02,0-.02,0,0,0-.02,0-.02,0,0,0-.01,0-.02,0,0,0-.02,0-.03,0,0,0,0,0,0,0-.02,0-.04,0-.06,0,0,0,0,0-.01,0,0,0-.02,0-.03,0,0,0,0,0-.01,0-.01,0-.02,0-.03,0,0,0,0,0-.01,0-.01,0-.02,0-.03h0c0-.07.02-.13.02-.2h0c.15-1.21.33-2.42.53-3.62h0s0-.03,0-.04h0c0-.05.02-.1.02-.15,0,0,0,0,0,0,0-.01,0-.02,0-.03,0,0,0,0,0-.01,0,0,0-.02,0-.03,0,0,0,0,0-.01,0,0,0-.02,0-.03,0,0,0,0,0-.01,0-.03,0-.06.01-.09,0,0,0-.02,0-.02,0,0,0-.01,0-.02,0,0,0-.02,0-.02,0,0,0-.01,0-.02,0,0,0-.02,0-.02,0,0,0-.01,0-.02,0,0,0-.02,0-.03,0,0,0,0,0-.01,0-.03,0-.06.01-.09,0,0,0,0,0,0l-.99-.17h0ZM9.05,106.87c-.03,1.04-.05,2.09-.05,3.13,0,.97.01,1.96.04,2.93l1-.03c-.01-.52-.03-1.04-.03-1.57h0s0-.03,0-.04c0,0,0,0,0-.01,0-.01,0-.02,0-.03,0,0,0,0,0-.01,0-.01,0-.02,0-.03,0,0,0,0,0-.01,0-.01,0-.02,0-.03,0,0,0,0,0,0,0-.05,0-.1,0-.15,0,0,0,0,0-.01,0,0,0-.02,0-.03,0,0,0-.01,0-.02,0,0,0-.02,0-.02,0,0,0-.01,0-.02,0,0,0-.02,0-.03,0,0,0-.01,0-.02,0,0,0-.02,0-.02,0,0,0-.01,0-.02,0,0,0-.02,0-.02,0,0,0-.01,0-.02,0,0,0-.01,0-.02,0,0,0-.01,0-.02,0-.01,0-.03,0-.04,0,0,0-.01,0-.02,0,0,0-.01,0-.02,0,0,0-.02,0-.02,0,0,0-.01,0-.02,0-.01,0-.01,0-.02,0,0,0-.01,0-.02,0,0,0-.02,0-.02,0,0,0-.01,0-.02,0,0,0-.02,0-.02,0,0,0-.01,0-.02,0-.01,0-.01,0-.02,0,0,0-.01,0-.02,0,0,0-.02,0-.03,0,0,0-.01,0-.02,0-.01,0-.02,0-.03,0,0,0-.01,0-.02,0-.01,0-.03,0-.04h0s0-.03,0-.04v-.02s0-.02,0-.03v-.02s0-.02,0-.03c0,0,0-.01,0-.02v-.03s0-.01,0-.02v-.04s0-.02,0-.03h0v-.06h0v-.06s0-.02,0-.03v-.02s0-.02,0-.03v-.02s0-.02,0-.03h0s0-.08,0-.1h0s0-.04,0-.05c0,0,0-.01,0-.02,0,0,0-.02,0-.03,0,0,0-.01,0-.02,0-.01,0-.02,0-.03,0,0,0,0,0-.01,0-.03,0-.06,0-.09,0,0,0,0,0-.01,0-.01,0-.02,0-.03,0,0,0-.01,0-.02,0-.01,0-.02,0-.03,0,0,0,0,0-.01,0-.01,0-.02,0-.04,0,0,0,0,0,0,0-.03,0-.06,0-.09,0,0,0,0,0-.01,0-.01,0-.03,0-.04,0,0,0,0,0-.01,0-.01,0-.02,0-.03,0,0,0,0,0-.01,0-.01,0-.03,0-.04h0s0-.07,0-.1c0,0,0,0,0,0,0-.01,0-.03,0-.04,0,0,0,0,0,0,0-.01,0-.03,0-.04h0c0-.67.02-1.33.04-1.99l-1-.03h0ZM10.59,120.88l-.99.11c.22,2,.5,4.02.83,6l.99-.17s0,0,0,0c0,0,0,0,0,0,0-.03-.01-.07-.02-.1,0,0,0,0,0,0,0-.01,0-.02,0-.03h0s0-.03,0-.04h0c-.26-1.59-.49-3.18-.68-4.78h0s0-.03,0-.04c0,0,0,0,0-.01,0,0,0-.02,0-.03,0,0,0,0,0-.01,0-.01,0-.02,0-.03h0s0-.04,0-.06c0,0,0-.01,0-.02,0,0,0-.01,0-.02,0,0,0-.02,0-.02,0,0,0-.01,0-.02,0,0,0-.02,0-.03,0,0,0-.01,0-.02,0,0,0-.02,0-.03,0,0,0,0,0,0,0-.03,0-.06-.01-.09,0,0,0,0,0,0,0-.01,0-.03,0-.04,0,0,0,0,0,0,0-.01,0-.03,0-.04,0,0,0,0,0,0-.02-.14-.03-.28-.05-.42h0ZM13.06,134.65l-.97.25c.49,1.95,1.05,3.91,1.67,5.83l.95-.3c-.06-.19-.12-.39-.18-.58,0,0,0,0,0,0,0-.01,0-.02-.01-.04,0,0,0,0,0-.01,0-.01,0-.02,0-.03,0,0,0,0,0-.01,0,0,0-.02,0-.03,0,0,0-.01,0-.02,0,0,0-.02-.01-.03,0,0,0-.02,0-.03,0,0,0-.01,0-.01,0,0,0-.02,0-.03,0,0,0,0,0-.01,0,0,0-.02,0-.03,0,0,0,0,0,0-.38-1.22-.73-2.45-1.06-3.7h0s0-.02,0-.04h0s-.02-.1-.04-.14c0,0,0-.01,0-.01,0,0,0-.02,0-.02,0,0,0-.01,0-.02,0,0,0-.01,0-.02,0,0,0-.01,0-.02,0,0,0-.01,0-.02,0-.01,0-.02,0-.04,0,0,0,0,0,0,0-.02,0-.02,0-.04,0,0,0,0,0-.01,0,0,0-.02,0-.03,0,0,0,0,0-.01,0-.01,0-.02,0-.03,0,0,0,0,0,0-.06-.24-.13-.49-.19-.73h0ZM17.45,147.93l-.93.38c.76,1.86,1.59,3.72,2.47,5.53l.9-.43c-.87-1.8-1.68-3.62-2.44-5.48h0ZM23.65,160.47l-.86.51c1.02,1.73,2.1,3.46,3.22,5.13l.83-.56s0,0,0-.01c0,0,0,0,0-.01,0,0-.01-.02-.02-.02,0,0,0,0,0-.01-.01-.02-.02-.03-.03-.05,0,0,0,0,0,0,0,0,0-.01-.01-.02,0,0,0-.01-.01-.02,0,0,0-.01-.01-.02v-.02s-.02-.01-.02-.02c0,0,0-.01-.01-.02,0-.01-.01-.02-.02-.03,0,0,0-.01-.01-.02,0,0,0-.01-.01-.02,0,0,0-.01-.01-.02,0,0,0-.01-.01-.02,0,0,0-.01-.01-.02,0,0,0-.01-.01-.02,0,0,0-.01-.01-.02,0,0,0,0,0-.01,0-.01-.02-.02-.02-.03,0,0,0-.01-.01-.02,0,0,0-.01-.01-.02,0,0,0-.01-.01-.02,0,0,0-.01-.01-.02,0,0,0-.01-.01-.02,0,0,0-.01-.01-.02,0,0,0,0,0-.01,0-.01-.02-.02-.02-.03,0,0,0,0,0-.01,0,0-.01-.02-.02-.02,0,0,0,0,0-.01,0,0-.01-.02-.01-.02,0,0,0,0,0-.01,0,0-.01-.02-.02-.02,0,0,0,0,0-.01,0-.01-.02-.02-.02-.04,0,0,0,0,0,0,0-.01-.01-.02-.02-.03,0,0,0,0,0-.01,0,0,0-.01-.01-.02,0,0,0,0,0-.01,0,0-.01-.02-.02-.03,0,0,0,0,0-.01,0-.01-.02-.03-.02-.04,0,0,0,0,0,0,0-.01-.01-.02-.02-.03,0,0,0,0,0-.01,0,0-.01-.02-.02-.02,0,0,0,0,0-.01,0,0-.01-.02-.02-.03,0,0,0,0,0,0,0-.01-.02-.02-.02-.04,0,0,0,0,0,0,0-.01-.01-.02-.02-.03,0,0,0,0,0-.01,0,0-.01-.02-.02-.03,0,0,0,0,0,0,0,0-.01-.02-.02-.03,0,0,0,0,0,0-.02-.03-.03-.05-.05-.07,0,0,0,0,0,0,0,0-.01-.02-.02-.03,0,0,0,0,0,0,0-.01-.01-.02-.02-.03,0,0,0,0,0,0-.02-.03-.03-.05-.05-.08,0,0,0,0,0,0,0-.01-.01-.02-.02-.03,0,0,0,0,0,0,0-.01-.01-.02-.02-.03,0,0,0,0,0,0-.02-.03-.03-.05-.05-.08,0,0,0,0,0,0,0-.01-.01-.02-.02-.03,0,0,0,0,0,0,0-.01-.01-.02-.02-.03,0,0,0,0,0,0-.02-.03-.03-.05-.05-.08,0,0,0,0,0,0,0-.01-.02-.02-.02-.04,0,0,0,0,0,0,0-.01-.01-.02-.02-.04,0,0,0,0,0,0-.02-.03-.03-.05-.05-.08h0s-.02-.02-.02-.04c0,0,0,0,0,0,0-.01-.02-.03-.02-.04,0,0,0,0,0,0-.03-.04-.05-.08-.07-.12,0,0,0,0,0,0,0-.01-.02-.02-.02-.04,0,0,0,0,0,0-.62-.98-1.22-1.97-1.81-2.96h0ZM31.55,172.02l-.78.62c1.25,1.58,2.56,3.14,3.9,4.64l.75-.67s-.08-.09-.12-.14c0,0,0,0,0,0-.03-.03-.06-.07-.09-.1,0,0,0,0,0,0,0,0-.02-.02-.02-.03,0,0,0,0,0,0,0,0-.02-.02-.03-.03,0,0,0,0,0,0,0,0-.02-.02-.03-.03,0,0,0,0,0,0,0,0-.02-.02-.02-.03,0,0,0,0-.01-.01,0,0-.01-.01-.02-.02,0,0,0,0-.01-.01,0,0-.01-.01-.02-.02,0,0,0,0-.01-.01,0,0-.02-.02-.03-.03,0,0-.01-.01-.02-.02,0,0,0-.01-.01-.01,0,0-.01-.01-.02-.02,0,0,0,0,0-.01,0,0-.01-.01-.02-.02,0,0,0,0,0,0-.02-.03-.04-.05-.07-.08,0,0,0,0,0,0,0,0-.01-.02-.02-.02h0s-.01-.02-.02-.03h0s-.06-.08-.1-.11h0c-1.03-1.18-2.03-2.38-3-3.6h0s-.01-.02-.02-.03h0s-.04-.06-.07-.09h0s-.01-.02-.02-.03c0,0,0,0,0,0,0,0,0,0,0-.01h0ZM40.97,182.35l-.69.72c1.46,1.39,2.97,2.75,4.51,4.05l.65-.76s-.01-.01-.02-.02c0,0,0,0,0,0,0,0-.02-.01-.02-.02,0,0,0,0,0,0,0,0-.02-.01-.02-.02h0s-.05-.05-.08-.07c0,0,0,0,0,0,0,0-.02-.01-.02-.02,0,0,0,0,0,0,0,0-.02-.01-.02-.02h0s-.05-.05-.08-.07c0,0,0,0,0,0,0,0-.01-.01-.02-.02,0,0,0,0,0,0,0,0-.01-.01-.02-.02,0,0,0,0,0,0-.01-.01-.03-.02-.04-.04,0,0,0,0,0,0,0,0-.01-.01-.02-.02,0,0,0,0-.01,0,0,0-.01-.01-.02-.02,0,0,0,0-.01,0,0,0-.01-.01-.02-.02,0,0,0,0,0,0-.01-.01-.03-.03-.04-.04,0,0,0,0,0,0,0,0-.01-.01-.02-.02,0,0,0,0-.01-.01,0,0-.01-.01-.02-.02,0,0,0,0-.01-.01,0,0-.01-.01-.02-.02,0,0-.01,0-.02-.01,0,0-.02-.02-.03-.02,0,0-.01-.01-.02-.01,0,0-.01,0-.02-.01,0,0-.01,0-.02-.01,0,0-.01,0-.02-.01,0,0-.01-.01-.02-.01,0,0-.01,0-.02-.01,0,0-.01-.01-.02-.02,0,0,0,0-.02-.01,0,0-.02-.02-.03-.02,0,0,0,0-.01-.01,0,0-.01-.01-.02-.02,0,0,0,0-.01-.01,0,0-.01-.01-.02-.02,0,0,0,0-.01-.01,0,0-.02-.01-.03-.02,0,0,0,0,0,0,0,0-.02-.02-.03-.03,0,0,0,0-.01-.01,0,0-.01-.01-.02-.02,0,0,0,0-.01-.01,0,0-.01-.01-.02-.02,0,0,0,0-.01-.01-.02-.02-.04-.04-.06-.06,0,0,0,0-.01-.01,0,0-.01-.01-.02-.02,0,0,0,0-.01-.01,0,0-.02-.01-.02-.02,0,0,0,0,0,0-.02-.02-.04-.04-.07-.06,0,0,0,0,0,0,0,0-.02-.02-.03-.02,0,0,0,0,0,0,0,0-.02-.02-.03-.02,0,0,0,0,0,0-.02-.02-.04-.04-.07-.06,0,0,0,0,0,0-.01-.01-.02-.02-.03-.03,0,0,0,0,0,0-.01-.01-.02-.02-.03-.03,0,0,0,0,0,0-.02-.02-.05-.04-.07-.06,0,0,0,0,0,0-.01-.01-.02-.02-.03-.03,0,0,0,0,0,0-.01-.01-.02-.02-.03-.03,0,0,0,0,0,0-.04-.03-.07-.06-.1-.09,0,0,0,0,0,0-.92-.82-1.83-1.65-2.72-2.51h0ZM51.74,191.29l-.58.81c1.63,1.17,3.32,2.31,5.03,3.38l.53-.85c-.68-.43-1.36-.87-2.03-1.32h0s-.02-.01-.03-.02c0,0,0,0,0,0,0,0-.02-.01-.03-.02,0,0,0,0,0,0-.03-.02-.06-.04-.08-.06,0,0,0,0-.01,0,0,0-.02-.01-.02-.02,0,0,0,0-.01,0,0,0-.01,0-.02-.01,0,0,0,0-.02-.01-.01,0-.02-.01-.03-.02,0,0-.01,0-.02-.01,0,0-.01,0-.02-.01,0,0-.01,0-.02-.01,0,0-.01,0-.02-.01,0,0-.01,0-.02-.01,0,0,0,0-.01,0,0,0-.02-.01-.02-.02,0,0,0,0-.01,0-.01,0-.02-.02-.03-.02,0,0,0,0,0,0,0,0-.02-.01-.03-.02,0,0,0,0-.01,0-.01,0-.02-.01-.03-.02,0,0,0,0,0,0-.01,0-.02-.02-.03-.02,0,0,0,0,0,0-.02-.02-.05-.04-.08-.05,0,0,0,0,0,0-.01,0-.02-.02-.03-.02,0,0,0,0,0,0-.76-.52-1.52-1.04-2.27-1.58h0ZM63.65,198.63l-.46.89c1.78.93,3.62,1.83,5.45,2.65l.41-.91c-.18-.08-.37-.17-.56-.25,0,0,0,0,0,0-.06-.03-.11-.05-.17-.08,0,0,0,0,0,0-.01,0-.03-.01-.04-.02,0,0,0,0,0,0-.04-.02-.09-.04-.13-.06,0,0,0,0,0,0-.01,0-.03-.01-.04-.02,0,0,0,0,0,0-.04-.02-.09-.04-.13-.06,0,0,0,0,0,0-.01,0-.02-.01-.04-.02,0,0,0,0,0,0-.01,0-.03-.01-.04-.02,0,0,0,0,0,0-.03-.01-.06-.03-.08-.04,0,0,0,0,0,0-.01,0-.02-.01-.04-.02,0,0,0,0,0,0-.01,0-.02-.01-.04-.02,0,0,0,0,0,0-.03-.01-.06-.03-.08-.04h0s-.03-.01-.04-.02c0,0,0,0,0,0-.01,0-.02-.01-.04-.02,0,0,0,0,0,0-.04-.02-.08-.04-.13-.06,0,0,0,0,0,0-1.27-.6-2.53-1.23-3.77-1.88h0ZM76.46,204.24l-.34.94c1.89.67,3.84,1.3,5.77,1.86l.28-.96c-.43-.12-.86-.25-1.28-.38h0s-.02,0-.04-.01h0s-.1-.03-.15-.04h0s-.02,0-.03-.01h0s-.1-.03-.14-.04h0s-.02,0-.03-.01h0s-.02,0-.03-.01h0s-.1-.03-.14-.04h0s-.02,0-.03-.01c0,0,0,0,0,0-.05-.01-.09-.03-.14-.04h0s-.02,0-.04-.01h0c-1.22-.38-2.42-.78-3.62-1.21h0ZM89.94,207.99l-.2.98c1.97.4,3.98.75,5.97,1.03l.14-.99c-1.19-.17-2.37-.36-3.55-.57h0s-.02,0-.03,0h0c-.06-.01-.12-.02-.18-.03h0s-.02,0-.03,0c0,0,0,0,0,0-.01,0-.02,0-.03,0,0,0,0,0,0,0-.04,0-.07-.01-.11-.02,0,0,0,0,0,0-.01,0-.02,0-.03,0,0,0,0,0-.01,0,0,0-.02,0-.03,0,0,0,0,0-.01,0,0,0-.02,0-.03,0,0,0,0,0,0,0-.03,0-.07-.01-.1-.02,0,0,0,0-.01,0,0,0-.02,0-.03,0,0,0,0,0-.02,0,0,0-.02,0-.03,0h-.02s-.02,0-.02,0c0,0-.02,0-.02,0,0,0-.02,0-.02,0,0,0-.02,0-.02,0-.01,0-.02,0-.04,0,0,0-.01,0-.02,0,0,0-.01,0-.02,0,0,0-.02,0-.02,0,0,0-.01,0-.02,0,0,0-.02,0-.02,0,0,0-.01,0-.02,0,0,0-.02,0-.03,0,0,0,0,0-.01,0-.01,0-.03,0-.04,0,0,0,0,0-.01,0-.01,0-.02,0-.03,0,0,0,0,0-.01,0,0,0-.02,0-.03,0,0,0,0,0-.01,0,0,0-.02,0-.03,0,0,0,0,0-.01,0-.01,0-.02,0-.04,0,0,0,0,0,0,0-.03,0-.06-.01-.09-.02,0,0,0,0,0,0-.02,0-.02,0-.04,0,0,0,0,0,0,0-.01,0-.03,0-.04,0,0,0,0,0,0,0-.06-.01-.12-.02-.18-.04,0,0,0,0,0,0-.24-.05-.49-.1-.73-.15h0ZM103.81,209.81l-.06,1c2,.12,4.04.19,6.06.19v-1c-.33,0-.66,0-.99,0,0,0,0,0,0,0-.01,0-.03,0-.04,0,0,0,0,0,0,0-.02,0-.03,0-.04,0,0,0,0,0,0,0-.05,0-.09,0-.14,0,0,0,0,0,0,0-.01,0-.03,0-.04,0,0,0,0,0-.01,0-.01,0-.02,0-.03,0,0,0,0,0-.01,0-.01,0-.02,0-.03,0,0,0,0,0-.01,0-.01,0-.02,0-.04,0,0,0,0,0,0,0-.01,0-.03,0-.05,0,0,0,0,0,0,0-.01,0-.03,0-.04,0,0,0-.01,0-.02,0-.01,0-.02,0-.03,0,0,0-.01,0-.02,0,0,0-.02,0-.03,0,0,0-.01,0-.02,0-.01,0-.02,0-.03,0,0,0-.01,0-.02,0-.01,0-.02,0-.03,0,0,0-.01,0-.02,0-.01,0-.03,0-.04,0,0,0,0,0-.01,0-.01,0-.02,0-.03,0,0,0-.01,0-.02,0-.01,0-.01,0-.02,0,0,0-.01,0-.02,0,0,0-.02,0-.02,0,0,0-.01,0-.02,0,0,0-.02,0-.02,0,0,0-.01,0-.02,0,0,0-.02,0-.02,0,0,0-.01,0-.02,0,0,0-.02,0-.02,0-.01,0-.03,0-.04,0,0,0-.01,0-.02,0,0,0-.02,0-.02,0,0,0-.01,0-.02,0,0,0-.02,0-.02,0,0,0-.01,0-.02,0,0,0-.02,0-.02,0,0,0-.01,0-.02,0,0,0-.02,0-.03,0,0,0-.01,0-.02,0-.03,0-.06,0-.09,0,0,0-.01,0-.02,0,0,0-.02,0-.02,0,0,0-.01,0-.02,0,0,0-.02,0-.02,0,0,0-.01,0-.02,0,0,0-.02,0-.03,0,0,0,0,0-.02,0,0,0-.02,0-.03,0,0,0,0,0-.01,0-.03,0-.07,0-.1,0,0,0,0,0,0,0,0,0-.02,0-.03,0,0,0-.01,0-.01,0,0,0-.02,0-.03,0,0,0-.01,0-.02,0,0,0-.02,0-.03,0,0,0,0,0-.02,0,0,0-.02,0-.03,0,0,0,0,0-.01,0-.03,0-.07,0-.1,0,0,0,0,0-.01,0,0,0-.02,0-.03,0,0,0-.01,0-.02,0,0,0-.02,0-.03,0,0,0,0,0-.02,0,0,0-.02,0-.03,0,0,0,0,0-.02,0,0,0-.02,0-.03,0,0,0-.01,0-.01,0-.03,0-.07,0-.1,0,0,0,0,0-.01,0,0,0-.02,0-.03,0,0,0-.01,0-.01,0,0,0-.02,0-.03,0,0,0-.01,0-.02,0,0,0-.02,0-.03,0,0,0-.01,0-.02,0,0,0-.02,0-.03,0,0,0-.01,0-.02,0-.03,0-.06,0-.09,0,0,0-.01,0-.02,0,0,0-.02,0-.02,0,0,0-.01,0-.02,0,0,0-.02,0-.02,0,0,0-.01,0-.02,0,0,0-.02,0-.02,0,0,0-.02,0-.02,0,0,0-.01,0-.02,0,0,0-.02,0-.03,0,0,0-.01,0-.02,0-.01,0-.03,0-.04,0,0,0-.01,0-.02,0,0,0-.02,0-.03,0,0,0-.01,0-.02,0-.01,0-.01,0-.02,0,0,0-.01,0-.02,0,0,0-.02,0-.03,0,0,0-.01,0-.02,0-.01,0-.02,0-.03,0,0,0-.01,0-.02,0-.01,0-.02,0-.03,0,0,0,0,0-.01,0-.01,0-.03,0-.05,0h0s-.03,0-.04,0c0,0,0,0-.01,0-.01,0-.02,0-.03,0,0,0,0,0-.01,0-.01,0-.02,0-.03,0,0,0,0,0-.01,0-.01,0-.02,0-.03,0,0,0,0,0,0,0-.05,0-.09,0-.14,0,0,0,0,0,0,0-.01,0-.03,0-.04,0,0,0,0,0,0,0-.01,0-.03,0-.04,0,0,0,0,0,0,0-.53-.02-1.06-.05-1.58-.08h0ZM123.76,209.06c-1.71.24-3.43.43-5.17.58,0,0,0,0,0,0-.01,0-.03,0-.04,0,0,0,0,0,0,0-.01,0-.03,0-.04,0,0,0,0,0,0,0-.01,0-.03,0-.04,0,0,0,0,0,0,0-.03,0-.06,0-.09,0,0,0,0,0,0,0-.01,0-.02,0-.04,0,0,0,0,0-.01,0,0,0-.02,0-.03,0,0,0-.01,0-.02,0,0,0-.02,0-.03,0,0,0-.01,0-.02,0,0,0-.02,0-.03,0,0,0,0,0-.01,0-.01,0-.03,0-.04,0,0,0-.01,0-.02,0,0,0-.02,0-.02,0,0,0-.02,0-.02,0,0,0-.01,0-.02,0,0,0-.02,0-.02,0,0,0-.01,0-.02,0,0,0-.02,0-.02,0,0,0-.01,0-.02,0,0,0-.02,0-.03,0h0s-.05,0-.07,0h0s-.02,0-.03,0c0,0,0,0,0,0,0,0,0,0-.01,0l.08,1c2.01-.15,4.04-.37,6.03-.65l-.14-.99h0ZM137.45,206.18c-.75.21-1.5.42-2.26.61,0,0,0,0,0,0-.06.02-.12.03-.18.05,0,0,0,0,0,0-.01,0-.03,0-.04.01,0,0,0,0,0,0-.01,0-.03,0-.04.01h0s-.06.02-.09.02c0,0,0,0,0,0-.01,0-.03,0-.04,0,0,0,0,0,0,0-.01,0-.02,0-.03,0,0,0,0,0-.01,0-.01,0-.03,0-.04,0,0,0,0,0,0,0-.01,0-.03,0-.04.01,0,0,0,0,0,0-.01,0-.03,0-.04,0,0,0,0,0-.01,0,0,0-.02,0-.03,0,0,0-.01,0-.02,0,0,0-.02,0-.03,0,0,0-.01,0-.02,0-.01,0-.02,0-.03,0,0,0,0,0-.01,0-.01,0-.03,0-.04.01h-.01s-.02,0-.03.01h-.02s-.02,0-.03.01h-.02s-.02,0-.03.01h-.02s-.02,0-.03.01c0,0-.01,0-.02,0,0,0-.02,0-.03,0,0,0-.01,0-.02,0,0,0-.01,0-.02,0,0,0-.01,0-.02,0,0,0-.01,0-.02,0h-.02s-.01,0-.02.01c0,0-.01,0-.02,0,0,0-.02,0-.02,0-.01,0-.03,0-.04,0,0,0-.01,0-.02,0,0,0-.01,0-.02,0,0,0-.01,0-.02,0,0,0-.02,0-.02,0,0,0-.01,0-.02,0,0,0-.02,0-.02,0,0,0-.01,0-.02,0-.02,0-.04,0-.06.01,0,0,0,0,0,0,0,0-.02,0-.02,0,0,0-.01,0-.02,0,0,0-.02,0-.02,0,0,0-.01,0-.02,0,0,0-.02,0-.02,0,0,0-.01,0-.02,0,0,0-.02,0-.03,0,0,0-.01,0-.01,0-.03,0-.06.01-.09.02,0,0-.01,0-.01,0,0,0-.02,0-.03,0,0,0,0,0-.02,0,0,0-.02,0-.03,0,0,0-.01,0-.01,0,0,0-.02,0-.03,0,0,0,0,0-.01,0-.02,0-.03,0-.05.01,0,0-.01,0-.01,0,0,0-.02,0-.03,0,0,0-.01,0-.02,0,0,0-.02,0-.03,0,0,0,0,0-.02,0,0,0-.02,0-.03,0,0,0-.01,0-.02,0,0,0-.02,0-.03,0,0,0,0,0,0,0-.02,0-.04,0-.06.01,0,0,0,0-.01,0,0,0-.02,0-.03,0,0,0,0,0-.02,0,0,0-.02,0-.02,0,0,0-.01,0-.02,0,0,0-.02,0-.03,0,0,0-.01,0-.02,0-.02,0-.04,0-.05.01,0,0,0,0,0,0,0,0-.01,0-.02,0,0,0-.01,0-.02,0,0,0-.01,0-.02,0,0,0-.01,0-.02,0,0,0-.01,0-.02,0,0,0-.01,0-.02,0,0,0-.01,0-.02,0,0,0-.02,0-.02,0,0,0-.02,0-.03,0,0,0-.02,0-.03,0,0,0-.01,0-.02,0,0,0-.02,0-.03,0,0,0-.01,0-.02,0,0,0-.02,0-.03,0,0,0,0,0-.01,0,0,0-.02,0-.03,0,0,0,0,0-.01,0-.01,0-.03,0-.04,0,0,0,0,0,0,0-.02,0-.02,0-.04,0,0,0,0,0-.01,0,0,0-.02,0-.03,0,0,0,0,0-.01,0,0,0-.02,0-.03,0,0,0,0,0-.01,0-.01,0-.02,0-.04,0,0,0,0,0,0,0-.03,0-.06.01-.09.02,0,0,0,0,0,0-.01,0-.02,0-.04,0,0,0,0,0,0,0-.01,0-.03,0-.04,0,0,0,0,0,0,0-.04,0-.09.02-.14.03,0,0,0,0,0,0-.12.03-.24.05-.37.08l.22.98c1.96-.43,3.94-.93,5.88-1.48l-.27-.96h0ZM150.6,201.41s-.07.03-.11.05h0c-.37.16-.74.33-1.11.49h0c-.06.03-.12.05-.17.07h0s-.02.01-.03.02h0s-.09.04-.14.06h0s-.02.01-.03.01c0,0,0,0,0,0,0,0-.02,0-.03.01h0s-.06.03-.09.04c0,0,0,0,0,0,0,0-.02,0-.03.01,0,0,0,0-.01,0,0,0-.02,0-.03.01,0,0,0,0-.01,0-.03.01-.06.02-.09.04,0,0,0,0-.01,0,0,0-.02,0-.02.01,0,0,0,0-.02,0,0,0-.02,0-.02,0,0,0,0,0-.02,0,0,0-.02,0-.02,0h-.01s-.03.02-.05.03c0,0,0,0-.01,0,0,0-.01,0-.02,0,0,0-.01,0-.02,0,0,0-.01,0-.02,0,0,0-.01,0-.02,0,0,0-.01,0-.02,0,0,0-.01,0-.02,0,0,0-.01,0-.02,0-.01,0-.03.01-.04.02,0,0,0,0-.02,0,0,0-.02,0-.02.01,0,0-.01,0-.02,0,0,0-.02,0-.02,0,0,0-.01,0-.02,0,0,0-.01,0-.02,0,0,0-.01,0-.02,0-.01,0-.03.01-.04.02,0,0,0,0,0,0-.01,0-.02,0-.03.01,0,0,0,0-.01,0,0,0-.02,0-.03.01,0,0,0,0-.01,0,0,0-.02,0-.03.01,0,0,0,0-.01,0-.01,0-.02,0-.04.02,0,0,0,0,0,0-.01,0-.03.01-.04.02,0,0,0,0,0,0,0,0-.02,0-.03.01,0,0,0,0-.01,0-.01,0-.02,0-.03.01,0,0,0,0-.01,0-.04.02-.08.03-.12.05,0,0,0,0,0,0-.01,0-.02,0-.04.01,0,0,0,0,0,0-.06.02-.11.05-.17.07,0,0,0,0,0,0-.06.02-.11.05-.17.07,0,0,0,0,0,0-.75.3-1.51.6-2.28.88l.35.94c1.88-.7,3.77-1.48,5.61-2.29l-.41-.91h0ZM162.95,194.85c-.31.19-.62.39-.94.58h0s-.02.01-.03.02h0s-.06.04-.09.06h0s-.02.01-.03.02c0,0,0,0-.01,0,0,0-.02,0-.02.01,0,0,0,0,0,0,0,0-.02.01-.03.02,0,0,0,0,0,0-.02.01-.03.02-.05.03,0,0,0,0,0,0,0,0-.02,0-.02.01,0,0,0,0-.01,0,0,0-.02,0-.02.01,0,0,0,0-.01,0,0,0-.01,0-.02.01,0,0,0,0-.02,0l-.03.02s-.01,0-.02.01c0,0-.01,0-.02.01,0,0-.01,0-.02.01,0,0-.01,0-.02.01,0,0-.01,0-.02.01,0,0-.01,0-.02.01-.01,0-.01,0-.02.02,0,0,0,0-.01,0-.01,0-.02.01-.03.02,0,0,0,0-.01,0,0,0-.02,0-.02.01,0,0,0,0-.01,0,0,0-.02.01-.03.02,0,0,0,0-.01,0-.01,0-.02.01-.03.02,0,0,0,0,0,0-.01,0-.03.02-.04.02,0,0,0,0,0,0-.01,0-.02.01-.03.02,0,0,0,0-.01,0-.01,0-.02.01-.03.02,0,0,0,0,0,0-.01,0-.02.01-.03.02,0,0,0,0,0,0-.01,0-.03.02-.04.02,0,0,0,0,0,0-.01,0-.03.02-.04.02,0,0,0,0,0,0-.01,0-.02.01-.03.02,0,0,0,0,0,0-.04.02-.08.05-.12.07,0,0,0,0,0,0-.01,0-.03.02-.04.02,0,0,0,0,0,0-.04.02-.08.05-.12.07,0,0,0,0,0,0-.01,0-.03.02-.04.02,0,0,0,0,0,0-.39.23-.78.46-1.18.68,0,0,0,0,0,0-.04.02-.08.05-.12.07,0,0,0,0,0,0-.01,0-.02.01-.04.02,0,0,0,0,0,0-.04.02-.08.04-.12.07,0,0,0,0,0,0-.01,0-.02.01-.03.02,0,0,0,0,0,0,0,0-.02.01-.03.02,0,0,0,0,0,0-.01,0-.02.01-.04.02,0,0,0,0,0,0-.01,0-.02.01-.03.02,0,0,0,0-.01,0,0,0-.02,0-.03.01,0,0,0,0-.01,0,0,0-.02,0-.03.01,0,0,0,0-.01,0-.01,0-.02,0-.03.02,0,0-.01,0-.02.01,0,0-.02.01-.03.02,0,0-.01,0-.02,0,0,0-.01,0-.02.01,0,0-.01,0-.02.01,0,0-.01,0-.02,0h-.02s-.01.02-.01.02c-.02,0-.03.02-.05.03,0,0,0,0,0,0,0,0-.02,0-.02.01,0,0,0,0-.01,0,0,0-.02,0-.03.01,0,0,0,0,0,0,0,0-.02.01-.03.02h0c-.28.16-.57.31-.85.47l.48.88c1.77-.96,3.53-1.99,5.23-3.06l-.53-.85h0ZM174.27,186.62c-.2.17-.4.33-.6.5h0s-.02.02-.03.02h0s-.02.02-.03.02c0,0,0,0,0,0-.02.02-.05.04-.07.06,0,0,0,0-.01,0,0,0-.01.01-.02.02,0,0,0,0-.01.01,0,0-.01.01-.02.02,0,0-.01,0-.01.01,0,0-.02.01-.03.02,0,0-.01.01-.02.02,0,0-.01,0-.02.01,0,0-.01,0-.02.02,0,0,0,0-.01.01,0,0-.01.01-.02.02,0,0,0,0-.01.01,0,0-.02.01-.03.02,0,0,0,0,0,0,0,0-.02.02-.03.03,0,0,0,0,0,0,0,0-.02.02-.03.02,0,0,0,0,0,0,0,0-.02.01-.03.02,0,0,0,0,0,0-.02.02-.04.04-.07.06,0,0,0,0,0,0,0,0-.02.02-.03.03,0,0,0,0,0,0,0,0-.02.02-.03.03,0,0,0,0,0,0-1.14.93-2.3,1.83-3.48,2.7l.6.8c1.61-1.2,3.21-2.46,4.75-3.76l-.64-.77h0ZM184.33,176.9c-.1.12-.21.23-.31.35,0,0,0,0,0,0,0,0-.02.02-.03.03,0,0,0,0,0,0,0,0-.02.02-.02.03,0,0,0,0,0,0,0,0-.02.02-.03.03,0,0,0,0,0,0,0,0-.01.01-.02.02,0,0,0,.01-.01.02,0,0,0,.01-.01.01,0,0-.01.01-.02.02,0,0,0,0,0,.01-.02.02-.05.05-.07.07h0s-.02.02-.02.03h0s-.02.02-.02.03h0c-.96,1.05-1.95,2.08-2.95,3.09h0s-.07.07-.1.1h0s-.01.02-.02.03c0,0,0,0,0,0,0,0-.01.01-.02.02,0,0,0,0,0,0-.02.02-.04.04-.07.07,0,0,0,0,0,0,0,0-.01.01-.02.02,0,0,0,0-.01.01,0,0-.01.01-.02.02,0,0,0,0-.01.01-.02.02-.04.04-.06.06,0,0,0,0-.01.01,0,0-.01.01-.02.02,0,0-.01.01-.02.02,0,0,0,0-.01.01,0,0-.01.01-.02.02,0,0,0,0-.01.01,0,0-.02.02-.03.03,0,0,0,0,0,0,0,0-.02.01-.02.02,0,0,0,0-.01.01,0,0-.02.02-.02.02,0,0,0,0-.01.01,0,0-.01.01-.02.02,0,0,0,0,0,0l.7.71c1.43-1.41,2.84-2.88,4.19-4.38l-.74-.67h0ZM192.94,165.88c-.09.13-.18.27-.27.4h0s-.01.02-.02.03h0s-.04.06-.06.09c0,0,0,0,0,0,0,0-.01.02-.02.02,0,0,0,0,0,.01,0,0-.01.02-.02.02,0,0,0,0,0,0-.01.02-.02.03-.03.05,0,0,0,0,0,0,0,0,0,.01-.01.02,0,0,0,0,0,.01,0,0,0,.01-.01.02,0,0,0,.01-.01.02,0,0,0,.01-.01.02,0,0,0,.01-.01.02,0,0,0,.01-.01.02,0,.01-.02.02-.02.03,0,0,0,0,0,.01,0,0,0,.01-.01.02,0,0,0,.01-.01.02,0,0-.01.02-.01.02,0,0,0,0,0,.01,0,0-.01.02-.02.02,0,0,0,0,0,.01,0,.01-.02.02-.02.03,0,0,0,0,0,0,0,.01-.01.02-.02.03,0,0,0,0,0,.01,0,.01-.01.02-.02.03,0,0,0,0,0,.01,0,.01-.01.02-.02.03,0,0,0,0,0,0,0,.01-.02.03-.02.04,0,0,0,0,0,0,0,.01-.01.02-.02.03,0,0,0,0,0,.01,0,.01-.01.01-.02.02,0,0,0,0,0,.01,0,.01-.01.02-.02.03,0,0,0,0,0,0,0,.01-.02.03-.03.04,0,0,0,0,0,0,0,.01-.02.02-.02.03,0,0,0,0,0,0,0,.01-.01.02-.02.03,0,0,0,0,0,0,0,.01-.02.02-.02.03,0,0,0,0,0,0-.02.02-.04.05-.05.07,0,0,0,0,0,0,0,.01-.01.02-.02.03,0,0,0,0,0,0,0,.01-.02.02-.02.03,0,0,0,0,0,0-.02.03-.03.05-.05.07,0,0,0,0,0,0,0,.01-.02.02-.02.03,0,0,0,0,0,0,0,.01-.02.02-.02.03,0,0,0,0,0,0-.02.03-.04.05-.05.08,0,0,0,0,0,0,0,.01-.02.02-.02.03,0,0,0,0,0,0,0,.01-.02.03-.03.04,0,0,0,0,0,0-.02.03-.04.05-.05.08,0,0,0,0,0,0,0,.01-.02.02-.03.04,0,0,0,0,0,0-.04.05-.07.1-.11.15,0,0,0,0,0,0-.03.04-.05.08-.08.11,0,0,0,0,0,0,0,.01-.02.02-.03.04,0,0,0,0,0,0-.03.04-.05.07-.08.11,0,0,0,0,0,0,0,.01-.02.02-.02.03,0,0,0,0,0,0,0,.01-.02.02-.03.04,0,0,0,0,0,0-.02.03-.04.05-.05.07,0,0,0,0,0,0,0,.01-.02.02-.02.03,0,0,0,0,0,0,0,.01-.02.02-.03.04,0,0,0,0,0,0-.02.03-.04.05-.05.08,0,0,0,0,0,0,0,.01-.02.02-.03.04,0,0,0,0,0,0,0,.01-.02.02-.03.04,0,0,0,0,0,0-.02.03-.04.05-.05.07,0,0,0,0,0,0,0,.01-.02.02-.03.04,0,0,0,0,0,0,0,.01-.02.02-.03.03,0,0,0,0,0,0-.02.03-.04.05-.05.08h0s-.02.02-.03.04c0,0,0,0,0,0,0,.01-.01.02-.02.03,0,0,0,0,0,0-.02.03-.04.05-.05.07,0,0,0,0,0,0,0,.01-.02.02-.02.03,0,0,0,0,0,0,0,.01-.01.02-.02.03,0,0,0,0,0,0-.02.03-.04.05-.05.07,0,0,0,0,0,0,0,.01-.01.02-.02.03,0,0,0,0,0,0,0,.01-.02.02-.02.03,0,0,0,0,0,0-.02.03-.04.05-.05.07,0,0,0,0,0,0,0,.01-.02.02-.03.03,0,0,0,0,0,0,0,.01-.02.02-.02.03,0,0,0,0,0,0-.02.03-.04.05-.05.07,0,0,0,0,0,0,0,.01-.02.02-.03.03,0,0,0,0,0,0,0,.01-.02.02-.02.03,0,0,0,0,0,0-.02.03-.04.05-.05.07,0,0,0,0,0,0,0,.01-.02.02-.03.03,0,0,0,0,0,0,0,.01-.02.02-.02.03,0,0,0,0,0,0-.03.04-.05.07-.08.11,0,0,0,0,0,0,0,.01-.02.02-.03.04,0,0,0,0,0,0-.03.04-.05.07-.08.11,0,0,0,0,0,0,0,.01-.02.02-.03.03,0,0,0,0,0,0-.03.04-.06.08-.08.11,0,0,0,0,0,0,0,0-.02.02-.03.03,0,0,0,0,0,0-.03.04-.05.07-.08.11,0,0,0,0,0,0-.05.06-.09.12-.14.19h0c-.07.1-.15.2-.23.3l.79.61c1.22-1.6,2.41-3.25,3.54-4.92l-.83-.56h0ZM199.94,153.77c-.44.9-.89,1.79-1.36,2.68h0s-.01.03-.02.04c0,0,0,0,0,0-.03.06-.06.11-.09.17,0,0,0,0,0,0-.02.04-.04.08-.07.12,0,0,0,0,0,0,0,.01-.01.02-.02.04,0,0,0,0,0,0-.02.04-.04.08-.06.12,0,0,0,0,0,0,0,.01-.01.02-.02.04,0,0,0,0,0,0,0,.01-.01.02-.02.04,0,0,0,0,0,0-.01.03-.03.05-.04.08,0,0,0,0,0,0,0,.01-.01.02-.02.04h0s-.01.03-.02.04c0,0,0,0,0,0,0,.01-.01.02-.02.04,0,0,0,0,0,0,0,.01-.02.03-.02.04,0,0,0,0,0,0,0,.01-.01.02-.02.03,0,0,0,0,0,0,0,.01-.01.02-.02.03,0,0,0,0,0,0,0,.01-.01.02-.02.03,0,0,0,0,0,0,0,.01-.02.03-.02.04,0,0,0,0,0,0,0,.01-.01.02-.02.03,0,0,0,0,0,.01,0,.01,0,.02-.02.03,0,0,0,0,0,.01,0,0-.01.02-.02.03,0,0,0,0,0,0,0,.01-.01.03-.02.04,0,0,0,0,0,0,0,.01-.01.02-.02.03,0,0,0,0,0,.01,0,0,0,.02-.01.03,0,0,0,0,0,.01,0,0,0,.02-.01.02,0,0,0,0,0,.01,0,0,0,.02-.01.03,0,0,0,.02-.01.02,0,0,0,.02-.01.02,0,0,0,.01,0,.02,0,0,0,.01-.01.02,0,0,0,.01-.01.02,0,0,0,.01,0,.02,0,0,0,.01-.01.02,0,0,0,.01,0,.02,0,.01-.01.03-.02.04,0,0,0,0,0,.01,0,0,0,.01-.01.02,0,0,0,0,0,.01,0,0,0,.01-.01.02,0,0,0,0,0,.01,0,0,0,.01-.01.02,0,0,0,0,0,.01-.02.03-.03.05-.05.08,0,0,0,0,0,.01,0,0,0,.02-.01.02,0,0,0,0,0,.01,0,0,0,.02-.01.03,0,0,0,0,0,0-.02.03-.03.06-.05.09h0s-.01.02-.02.03h0c-.13.24-.26.48-.4.72l.87.49c.99-1.75,1.94-3.56,2.82-5.36l-.9-.44h0ZM205.17,140.79c-.53,1.63-1.1,3.25-1.71,4.84h0s0,.02-.01.04h0s-.03.09-.05.14c0,0,0,0,0,.01,0,0,0,.02,0,.02,0,0,0,0,0,.02,0,0,0,.01,0,.02,0,0,0,.01,0,.02,0,0,0,.02,0,.02,0,.01,0,.02-.01.04,0,0,0,0,0,.01,0,0,0,.02-.01.03,0,0,0,0,0,.01,0,.01,0,.02-.01.03,0,0,0,0,0,.01,0,.01,0,.02-.01.03,0,0,0,0,0,0-.01.03-.02.06-.03.09h0s-.01.03-.02.04h0c-.03.07-.06.15-.08.22l.93.36c.73-1.87,1.42-3.79,2.04-5.71l-.95-.31h0ZM208.52,127.21s0,.03,0,.04c0,0,0,0,0,0,0,.01,0,.03,0,.04,0,0,0,0,0,0,0,.04-.02.09-.02.14,0,0,0,0,0,0,0,.01,0,.02,0,.04,0,0,0,0,0,.01,0,.01,0,.02,0,.03,0,0,0,0,0,0,0,.01,0,.02,0,.04,0,0,0,0,0,0,0,.01,0,.03,0,.04,0,0,0,0,0,0,0,.02,0,.02,0,.04,0,0,0,0,0,.01,0,0,0,.02,0,.03,0,0,0,0,0,.01,0,0,0,.02,0,.03,0,0,0,.01,0,.02,0,.01,0,.02,0,.03,0,0,0,0,0,.01,0,.01,0,.03,0,.04,0,0,0,0,0,.01,0,0,0,.02,0,.03,0,0,0,.01,0,.02,0,0,0,.02,0,.02,0,0,0,.01,0,.02,0,0,0,.02,0,.02,0,0,0,.01,0,.02,0,0,0,.02,0,.02,0,0,0,.01,0,.02,0,.01,0,.03,0,.04,0,0,0,.01,0,.02,0,0,0,.01,0,.02,0,0,0,.02,0,.02,0,0,0,.01,0,.02,0,0,0,.01,0,.02,0,0,0,.01,0,.02,0,0,0,.02,0,.02,0,0,0,.01,0,.02,0,.02,0,.03,0,.05,0,0,0,0,0,.01v.03s0,.01,0,.02c0,0,0,.02,0,.02,0,0,0,.01,0,.02,0,0,0,.02,0,.03,0,0,0,0,0,.02,0,0,0,.02,0,.03,0,0,0,.01,0,.01,0,.02,0,.04-.01.06h0s0,.02,0,.03c0,0,0,.01,0,.01,0,0,0,.02,0,.03,0,0,0,0,0,.02,0,0,0,.02,0,.03,0,0,0,0,0,.01v.03s0,0,0,.01c0,.02,0,.04-.01.06,0,0,0,0,0,0,0,0,0,.02,0,.03,0,0,0,.01,0,.01,0,0,0,.02,0,.03,0,0,0,0,0,.02,0,0,0,.02,0,.03v.02s0,.02,0,.03c0,0,0,.01,0,.02,0,.02,0,.03,0,.05,0,0,0,.01,0,.02,0,0,0,.02,0,.02,0,0,0,.01,0,.02,0,0,0,.02,0,.02,0,0,0,.01,0,.02,0,0,0,.02,0,.02,0,0,0,.01,0,.02,0,0,0,.02,0,.02,0,0,0,.01,0,.02,0,.01,0,.03,0,.04,0,0,0,.02,0,.02,0,0,0,.01,0,.02,0,0,0,.01,0,.02,0,0,0,.01,0,.02,0,0,0,.01,0,.02,0,0,0,.01,0,.02,0,0,0,.01,0,.02,0,0,0,.01,0,.02,0,0,0,.02,0,.03,0,.01,0,.02,0,.03,0,0,0,.02,0,.02,0,0,0,.01,0,.02,0,0,0,.02,0,.02,0,0,0,.01,0,.02,0,0,0,.02,0,.03,0,0,0,.01,0,.02,0,0,0,.02,0,.03,0,0,0,.01,0,.02,0,.01,0,.03,0,.04,0,0,0,0,0,.01,0,.01,0,.02,0,.03,0,0,0,.01,0,.02,0,0,0,.02,0,.03,0,0,0,.01,0,.02,0,0,0,.02,0,.03,0,0,0,.01,0,.02,0,.01,0,.02,0,.03,0,0,0,0,0,0,0,.01,0,.03,0,.04,0,0,0,0,0,0,0,.01,0,.02,0,.04,0,0,0,0,0,.01,0,0,0,.02,0,.03,0,0,0,0,0,.01,0,0,0,.02,0,.03,0,0,0,0,0,.01,0,.01,0,.03,0,.04,0,0,0,0,0,0,0,.01,0,.03,0,.05h0s0,.03,0,.04c0,0,0,0,0,0,0,0,0,.03,0,.03,0,0,0,0,0,.01,0,0,0,.03,0,.04,0,0,0,0,0,0,0,.04-.02.09-.03.13,0,0,0,0,0,0,0,.01,0,.03,0,.04,0,0,0,0,0,0,0,.02,0,.03,0,.04,0,0,0,0,0,0,0,.04-.02.09-.03.14,0,0,0,0,0,0,0,.02,0,.03,0,.04,0,0,0,0,0,0-.17.81-.35,1.62-.54,2.42l.97.23c.46-1.96.87-3.95,1.22-5.94l-.99-.17h0ZM209.95,113.29c-.02.51-.04,1.02-.06,1.53h0s0,.03,0,.04h0c0,.07,0,.13,0,.19,0,0,0,0,0,0,0,.01,0,.02,0,.03,0,0,0,0,0,.01,0,0,0,.02,0,.03,0,0,0,.01,0,.01,0,0,0,.02,0,.03,0,0,0,0,0,.01,0,.03,0,.07,0,.1,0,0,0,.01,0,.02,0,0,0,.02,0,.03,0,0,0,.01,0,.02,0,0,0,.02,0,.02,0,0,0,.01,0,.02,0,0,0,.01,0,.02,0,0,0,.01,0,.02,0,0,0,.01,0,.02,0,0,0,.02,0,.03,0,0,0,.02,0,.02,0,0,0,.02,0,.03,0,0,0,.01,0,.02,0,0,0,.01,0,.02,0,0,0,.01,0,.02,0,0,0,.02,0,.03,0,0,0,.01,0,.02,0,0,0,.02,0,.03,0,0,0,.01,0,.02,0,0,0,.02,0,.03,0,0,0,0,0,.01,0,.03,0,.06,0,.09,0,0,0,0,0,.01,0,0,0,.02,0,.03,0,0,0,0,0,.01,0,.01,0,.02,0,.03,0,0,0,0,0,.01,0,0,0,.03,0,.04,0,0,0,0,0,0,0,.05,0,.09,0,.14,0,0,0,0,0,0,0,.01,0,.03,0,.04,0,0,0,0,0,0,0,.01,0,.03,0,.04,0,0,0,0,0,0,0,.01,0,.03,0,.04,0,0,0,0,0,0,0,.06,0,.12-.01.19,0,0,0,0,0,0,0,.02,0,.03,0,.05,0,0,0,0,0,0-.03.51-.07,1.03-.11,1.54,0,0,0,0,0,0,0,.01,0,.03,0,.04,0,0,0,0,0,0,0,.02,0,.03,0,.04,0,0,0,0,0,0,0,.05,0,.09-.01.14,0,0,0,0,0,0,0,0,0,.03,0,.04,0,0,0,0,0,0,0,.01,0,.02,0,.03,0,0,0,0,0,.01,0,0,0,.03,0,.03,0,0,0,0,0,0,0,.02,0,.03,0,.04,0,0,0,0,0,0,0,.01,0,.03,0,.04,0,0,0,0,0,.01,0,0,0,.02,0,.03,0,0,0,.01,0,.02,0,0,0,.02,0,.02,0,0,0,.01,0,.02,0,0,0,.01,0,.02v.02s0,.01,0,.02c0,0,0,.02,0,.03h0s0,.08,0,.11c0,0,0,0,0,0,0,.01,0,.02,0,.03h0s0,.03,0,.04h0c-.01.14-.02.27-.04.4l1,.09c.18-2,.31-4.03.38-6.05l-1-.03h0ZM210.43,99.21l-.99.11c.03.28.06.57.09.86h0s0,.03,0,.04h0s0,.08.01.12h0s0,.02,0,.03c0,0,0,.01,0,.02,0,0,0,.02,0,.02,0,0,0,.01,0,.02,0,0,0,.01,0,.02,0,0,0,.02,0,.02,0,0,0,.01,0,.02,0,0,0,.02,0,.03,0,0,0,0,0,.01,0,.03,0,.06,0,.09,0,0,0,0,0,.01,0,0,0,.02,0,.03,0,0,0,0,0,.01,0,.01,0,.02,0,.04,0,0,0,0,0,0,0,.01,0,.03,0,.04,0,0,0,0,0,0,.14,1.5.24,3.02.31,4.54l1-.05c-.09-2.01-.25-4.04-.46-6.04h0ZM207.96,85.3l-.97.24c.33,1.33.64,2.67.92,4.01,0,0,0,0,0,0,0,.01,0,.03,0,.04,0,0,0,0,0,0,0,.01,0,.03,0,.04,0,0,0,0,0,0,0,.03.01.06.02.09,0,0,0,0,0,0,0,.01,0,.02,0,.03,0,0,0,0,0,.01,0,0,0,.02,0,.03,0,0,0,.01,0,.02,0,0,0,.02,0,.03,0,0,0,0,0,.01,0,0,0,.02,0,.03,0,0,0,.02,0,.03,0,0,0,.02,0,.02,0,0,0,.02,0,.02,0,0,0,.01,0,.02,0,0,0,.02,0,.03,0,0,0,0,0,.02,0,0,0,.02,0,.03,0,0,0,0,0,.01,0,.05.02.1.03.14h0s0,.03,0,.04h0c.08.38.15.76.22,1.13l.98-.18c-.37-1.98-.81-3.97-1.3-5.92h0ZM203.55,71.87l-.93.38c.75,1.85,1.45,3.72,2.1,5.62l.95-.32c-.65-1.9-1.36-3.81-2.12-5.68h0ZM197.31,59.2l-.86.5c.44.76.88,1.53,1.3,2.3h0c.03.06.06.11.09.16h0s.01.02.02.03h0s.03.07.05.1h0s0,.02.01.03c0,0,0,0,0,.01,0,0,0,.02.01.03,0,0,0,0,0,0,0,0,0,.02.01.03h0s.02.04.03.06c0,0,0,0,0,0,0,0,0,.02.01.02,0,0,0,0,0,.01,0,0,0,.02.01.02,0,0,0,0,0,.01,0,0,0,.02.01.02,0,0,0,.01,0,.01,0,.01.02.03.02.04,0,0,0,0,0,.01,0,0,0,.02.01.02,0,0,0,0,0,.02,0,0,0,.01.01.02,0,0,0,.01,0,.02,0,0,0,.01.01.02,0,0,0,.01,0,.02,0,.01.01.02.02.03,0,0,0,.01.01.02,0,0,0,.01.01.02,0,0,0,.01.01.02,0,0,0,.01,0,.02,0,0,0,.02.01.02,0,0,0,.01,0,.02,0,0,0,.01.01.02,0,0,0,.01,0,.02,0,.01.01.02.02.03,0,0,0,.01,0,.02,0,0,0,.01.01.02,0,0,0,.01,0,.02,0,0,0,.02.01.02,0,0,0,.01,0,.02,0,0,0,.02.01.02,0,0,0,0,0,.01,0,.01.01.03.02.04,0,0,0,0,0,0,0,.01,0,.02.01.03,0,0,0,0,0,.01,0,0,0,.02.01.03,0,0,0,0,0,.01,0,0,.01.02.01.03,0,0,0,0,0,0,0,.01.01.03.02.04,0,0,0,0,0,0,0,.01.01.02.02.03,0,0,0,0,0,.01,0,0,.01.02.02.03,0,0,0,0,0,.01,0,0,.01.02.02.03,0,0,0,0,0,0,.01.03.03.05.04.08,0,0,0,0,0,0,0,0,.01.02.02.03,0,0,0,0,0,.01,0,0,.01.02.02.03,0,0,0,0,0,0,.01.03.03.05.04.08,0,0,0,0,0,0,0,.01.01.02.02.03,0,0,0,0,0,0,0,.01.01.02.02.03,0,0,0,0,0,0,.01.03.03.05.04.08,0,0,0,0,0,0,0,.01.01.02.02.04,0,0,0,0,0,0,0,.01.01.02.02.03,0,0,0,0,0,0,.01.03.03.05.04.08,0,0,0,0,0,0,0,.01.01.03.02.04,0,0,0,0,0,0,0,.01.01.02.02.03,0,0,0,0,0,0,0,.01.01.02.02.04,0,0,0,0,0,0,.01.03.03.05.04.08,0,0,0,0,0,0,0,.01.01.02.02.03,0,0,0,0,0,0,0,.01.01.02.02.03,0,0,0,0,0,0,.01.03.03.05.04.08,0,0,0,0,0,0,0,.01,0,.02.02.03,0,0,0,0,0,0,0,0,.01.02.02.03,0,0,0,0,0,0,.01.03.03.05.04.08,0,0,0,0,0,.01,0,0,0,.02.01.03,0,0,0,0,0,.01,0,0,0,.02.01.03,0,0,0,0,0,.01,0,.01.01.02.02.03,0,0,0,0,0,0,0,.01.01.03.02.04,0,0,0,0,0,.01,0,0,0,.02.01.03,0,0,0,.01,0,.02,0,0,0,.02.01.02,0,0,0,.01,0,.02,0,0,0,.02.01.02,0,0,0,.01,0,.02,0,.01.01.02.02.03,0,0,0,.01,0,.02,0,0,0,.01,0,.02,0,0,0,.01.01.02,0,0,0,.01,0,.02,0,0,0,0,0,.01l.89-.45c-.91-1.79-1.88-3.59-2.89-5.32h0ZM189.36,47.52l-.79.62c.33.42.66.85.99,1.28h0s.01.02.02.03c0,0,0,0,0,0,0,0,.01.02.02.02,0,0,0,0,0,0,.01.02.02.03.04.05,0,0,0,0,0,0,0,0,0,.01.01.02,0,0,0,.01.01.02,0,0,0,.01.01.02,0,0,0,.01.01.02,0,0,0,.01.01.02,0,0,0,.01.02.02,0,0,0,0,0,0,0,0,.02.02.03.03,0,0,0,0,0,0,0,0,.01.02.02.03,0,0,0,0,0,.01,0,0,.01.02.02.03,0,0,0,0,0,0,.02.02.03.05.05.07,0,0,0,0,0,0,0,0,.02.02.02.03,0,0,0,0,0,0,0,0,.02.02.02.03,0,0,0,0,0,0,.03.04.05.07.08.11,0,0,0,0,0,0,.72.96,1.43,1.94,2.11,2.93l.82-.57c-1.15-1.65-2.36-3.29-3.61-4.87h0ZM179.86,37.06l-.69.72c.32.3.63.61.94.91h0s.09.09.13.13c0,0,0,0,0,0,.04.04.09.09.13.13,0,0,0,0,0,0,.04.04.09.09.13.13,0,0,0,0,0,0,.04.04.09.09.13.13,0,0,0,0,0,0,.04.04.09.09.13.13,0,0,0,0,0,0,.04.04.09.09.13.13,0,0,0,0,0,0,.04.04.09.09.13.13,0,0,0,0,0,0,.04.04.08.09.13.13,0,0,0,0,0,0,.01.01.02.02.03.03,0,0,0,0,0,0,.03.03.06.06.1.1,0,0,0,0,0,0,.03.03.06.06.1.1h0s.02.02.03.03c0,0,0,0,0,0,.04.04.08.09.13.13,0,0,0,0,0,0,.01.01.02.02.03.03,0,0,0,0,0,0,.03.03.06.07.1.1,0,0,0,0,0,0,.04.04.08.09.13.13,0,0,0,0,0,0,.04.04.08.09.13.13,0,0,0,0,0,0,.03.03.06.07.1.1h0s.02.02.03.03c0,0,0,0,0,0,.01.01.02.02.03.03,0,0,0,0,0,0,.03.03.06.07.1.1,0,0,0,0,0,0,.01.01.02.02.03.03,0,0,0,0,0,0,.02.02.04.04.06.07,0,0,0,0,0,0,.01.01.02.02.03.03,0,0,0,0,0,0,.03.03.06.07.09.1,0,0,0,0,0,0,.01.01.02.02.03.03,0,0,0,0,0,0,.01.01.02.02.03.03,0,0,0,0,0,0,.02.02.04.04.06.07,0,0,0,0,0,0,.01.01.02.02.03.03,0,0,0,0,0,0,.01.01.02.02.03.03,0,0,0,0,0,0,.02.02.04.04.06.07,0,0,0,0,0,0,0,0,.02.02.03.03,0,0,0,0,0,0,0,0,.02.02.03.03,0,0,0,0,0,0,.02.02.04.04.06.07,0,0,0,0,0,0,0,0,.02.02.02.03,0,0,0,0,0,0,0,0,.02.02.02.02,0,0,0,0,0,0,.02.02.04.04.06.06,0,0,0,0,0,0,0,0,.02.02.02.02,0,0,0,0,0,.01,0,0,.02.02.02.02,0,0,0,0,0,0,.02.02.04.04.06.06,0,0,0,0,0,0,0,0,.01.01.02.02,0,0,0,0,.01.01,0,0,.01.01.02.02,0,0,0,0,.01.01,0,0,.02.02.03.03,0,0,0,0,0,0,0,0,.02.02.03.03,0,0,0,0,.01.01,0,0,.01.01.02.02,0,0,0,0,.01.01,0,0,.01.01.02.02,0,0,0,0,.01.01,0,0,.01.02.02.02,0,0,.01.02.02.02,0,0,.01.01.02.02,0,0,.01.01.02.02,0,0,0,0,.01.01,0,0,0,0,0,0l.73-.68c-1.37-1.48-2.8-2.93-4.25-4.32h0ZM169,28.02l-.58.81c.62.44,1.23.9,1.83,1.35h0s.02.02.03.02h0s.08.06.12.09c0,0,0,0,0,0,0,0,.02.01.02.02,0,0,0,0,0,0,0,0,.02.01.02.02h0s.03.03.05.04c0,0,0,0,0,0,0,0,.01.01.02.02,0,0,.01,0,.02.01,0,0,.01,0,.02.01,0,0,.01,0,.02.01,0,0,.01,0,.02.01,0,0,.02.01.02.02,0,0,.01,0,.02.01,0,0,.02.01.03.02,0,0,0,0,.01.01,0,0,.01.01.02.02,0,0,0,0,.01,0,0,0,.02.01.02.02,0,0,0,0,.01,0,.02.02.04.03.07.05,0,0,0,0,0,0,0,0,.02.02.03.02,0,0,0,0,0,0,.01,0,.02.01.03.02,0,0,0,0,0,0,.02.02.05.04.07.06,0,0,0,0,0,0,.01,0,.02.02.03.03,0,0,0,0,0,0,.64.5,1.28,1,1.91,1.51,0,0,0,0,0,0,0,0,.02.02.03.03,0,0,0,0,0,0,.02.02.05.04.07.06,0,0,0,0,0,0,0,0,.02.02.03.02,0,0,0,0,0,0,0,0,.01.01.02.02,0,0,0,0,.01,0,0,0,.01.01.02.02,0,0,0,0,0,0,0,0,.02.02.03.03,0,0,0,0,0,0l.63-.77c-1.56-1.27-3.18-2.51-4.81-3.69h0ZM156.99,20.58l-.47.88c1.77.93,3.51,1.92,5.22,2.95l.52-.86c-1.72-1.04-3.5-2.05-5.27-2.98h0ZM144.06,14.89l-.34.94s0,0,0,0c0,0,.02,0,.03.01,0,0,0,0,.01,0,.01,0,.03,0,.04.01,0,0,.01,0,.02,0,0,0,.02,0,.02,0,0,0,.01,0,.02,0,0,0,.01,0,.02,0,0,0,.02,0,.02,0,0,0,0,0,.01,0,0,0,.02,0,.03,0,0,0,0,0,0,0,.02,0,.04.02.07.02h0s.02,0,.03.01h0s.02,0,.03.01h0c.76.28,1.52.57,2.28.86h0s.02.01.03.01h0s.07.03.1.04c0,0,0,0,0,0,0,0,.02,0,.03.01,0,0,0,0,.01,0,0,0,.02,0,.03,0,0,0,0,0,.02,0,0,0,.02,0,.02,0,0,0,.01,0,.02,0,.01,0,.02,0,.03.01,0,0,.02,0,.03,0,0,0,.01,0,.02,0,0,0,.01,0,.02,0,0,0,.01,0,.02,0,0,0,.02,0,.02,0,0,0,.01,0,.02,0,.01,0,.02,0,.03.01,0,0,0,0,.01,0,.01,0,.03.01.04.02,0,0,0,0,0,0,.01,0,.02,0,.03.01,0,0,0,0,0,0,.01,0,.02,0,.03.01,0,0,0,0,0,0,.01,0,.03.01.04.02,0,0,0,0,0,0,.04.02.09.03.13.05,0,0,0,0,0,0,.73.29,1.44.59,2.16.89l.39-.92c-1.85-.79-3.75-1.54-5.64-2.21h0ZM130.46,11.07l-.2.98c1.24.25,2.47.53,3.69.83h0c.06.02.12.03.18.05h0s.02,0,.03,0h0s.02,0,.03,0c0,0,0,0,0,0,.03,0,.06.02.1.02,0,0,0,0,.01,0,0,0,.02,0,.02,0,0,0,.01,0,.02,0,0,0,.01,0,.02,0,0,0,.01,0,.02,0,0,0,.01,0,.02,0,0,0,.02,0,.02,0,0,0,.01,0,.02,0,.01,0,.03,0,.04,0,0,0,0,0,.01,0,0,0,.02,0,.03,0,0,0,.01,0,.02,0,0,0,.02,0,.03,0,0,0,.01,0,.02,0,0,0,.02,0,.03,0,0,0,0,0,.01,0,.03,0,.05.01.09.02,0,0,0,0,0,0,.01,0,.03,0,.04.01,0,0,0,0,0,0,.01,0,.03,0,.04.01,0,0,0,0,0,0,.42.11.84.22,1.26.33l.26-.97c-1.94-.52-3.92-.99-5.9-1.4h0ZM116.45,9.2l-.06,1c2.01.13,4,.31,5.97.56l.12-.99c-1.99-.25-4.02-.43-6.03-.56h0Z"/>
    </g>
  </g>
  <g id="Layer_1" data-name="Layer 1">
    <g>
      <polygon class="cls-2" points="116.98 63.28 116.98 62.98 116.98 62.98 116.98 63.28 116.98 63.28"/>
      <polygon class="cls-2" points="83.24 65.11 83.24 64.81 83.24 64.81 83.24 65.11 83.24 65.11"/>
      <polygon class="cls-2" points="148.35 61.57 148.36 61.57 148.36 61.27 148.36 61.27 148.35 61.57"/>
      <path class="cls-1" d="M44.28,107.74l22.73-.35c.72-.01,1.4-.35,1.86-.92.46-.57.65-1.32.52-2.05l-4.75-26.57c-.21-1.2-1.23-2.07-2.41-2.07h-.12s-24.01,1.16-24.01,1.16c-.73.04-1.41.4-1.85,1.01s-.59,1.37-.42,2.11l6.07,25.76c.27,1.13,1.25,1.93,2.38,1.93Z"/>
      <path class="cls-3" d="M44.33,108.52l22.69-.35c1.99-.03,3.47-1.89,3.11-3.9l-4.75-26.57c-.28-1.57-1.62-2.7-3.16-2.7-.05,0-.1,0-.15,0l-24.01,1.16c-2.02.1-3.45,2.06-2.97,4.07l6.07,25.76c.35,1.48,1.64,2.52,3.12,2.52.02,0,.03,0,.05,0ZM36.25,77.94c.44-.6,1.11-.97,1.85-1.01l24.01-1.16h.12c1.18,0,2.2.87,2.41,2.06l4.75,26.57c.13.73-.06,1.48-.52,2.05-.46.57-1.14.91-1.86.92l-22.73.35c-1.14,0-2.12-.79-2.38-1.93l-6.07-25.76c-.17-.73-.02-1.5.42-2.11Z"/>
      <path class="cls-6" d="M67.93,78.46l4.79,26.86c.28,1.59,1.64,2.73,3.21,2.71l26.31-.41c1.92-.03,3.39-1.78,3.14-3.74l-3.62-27.78c-.22-1.7-1.67-2.94-3.33-2.86l-27.47,1.32c-1.94.09-3.36,1.93-3.01,3.89Z"/>
      <path class="cls-1" d="M105.04,76.44l3.54,28.07c.16,1.25,1.2,2.2,2.43,2.2l25.38-.39c.69-.01,1.32-.31,1.78-.83s.68-1.2.62-1.91l-2.4-28.95c-.11-1.29-1.18-2.31-2.44-2.31h-.12s-26.47,1.28-26.47,1.28c-.69.03-1.32.35-1.77.9-.45.55-.64,1.24-.55,1.94Z"/>
      <path class="cls-3" d="M104.29,76.54l3.54,28.07c.21,1.65,1.57,2.88,3.18,2.88.02,0,.03,0,.05,0l25.34-.39c1.86-.03,3.31-1.67,3.15-3.58l-2.4-28.95c-.14-1.72-1.54-3.02-3.2-3.02-.05,0-.1,0-.15,0l-26.47,1.28c-1.88.09-3.28,1.81-3.03,3.72ZM133.83,72.32h.12c1.26,0,2.33,1.01,2.44,2.3l2.4,28.95c.06.7-.16,1.38-.62,1.91s-1.09.82-1.78.83l-25.38.39c-1.23,0-2.27-.94-2.43-2.2l-3.54-28.07c-.09-.71.11-1.4.55-1.94.45-.55,1.07-.87,1.77-.9l26.47-1.28Z"/>
      <path class="cls-6" d="M115.45,143.32l23.75.64c1.91.05,3.44-1.61,3.29-3.57l-2.2-27.98c-.14-1.73-1.56-3.06-3.25-3.03l-24.95.38c-1.92.03-3.38,1.77-3.14,3.72l3.4,26.95c.2,1.61,1.52,2.83,3.1,2.88Z"/>
      <path class="cls-6" d="M78.85,139.71c.27,1.54,1.56,2.66,3.08,2.71l24.81.67c1.98.05,3.53-1.72,3.27-3.74l-3.47-26.59c-.22-1.66-1.6-2.89-3.23-2.86l-25.89.4c-1.99.03-3.47,1.89-3.11,3.9l4.55,25.52Z"/>
      <path class="cls-6" d="M72.98,142.17c2.04.05,3.61-1.83,3.24-3.9l-4.5-25.14c-.28-1.58-1.64-2.73-3.21-2.7l-22.19.34c-2.06.03-3.56,2.02-3.07,4.08l5.71,24.24c.34,1.45,1.59,2.48,3.04,2.52l20.98.56Z"/>
      <path class="cls-1" d="M80.72,167.74l-3.72-20.8c-.21-1.16-1.19-2.03-2.34-2.06l-20.51-.63h-.08c-.75,0-1.46.35-1.92.96-.47.61-.63,1.4-.46,2.15l4.83,20.51c.26,1.08,1.19,1.87,2.27,1.92l19.4.92h.12c.73,0,1.41-.33,1.88-.91.47-.58.66-1.33.53-2.07Z"/>
      <path class="cls-3" d="M77.75,146.79c-.27-1.53-1.55-2.66-3.06-2.7l-20.51-.63s-.07,0-.1,0c-2.07,0-3.61,1.99-3.12,4.08l4.83,20.51c.34,1.43,1.55,2.45,2.97,2.52l19.4.92c.05,0,.1,0,.15,0,1.99,0,3.52-1.86,3.15-3.9l-3.72-20.8ZM78.2,170.71l-19.4-.92c-1.08-.05-2.02-.84-2.27-1.92l-4.83-20.51c-.18-.76-.01-1.54.46-2.15.47-.61,1.17-.96,1.92-.96h.08s20.51.63,20.51.63c1.15.04,2.13.9,2.34,2.06l3.72,20.8c.13.74-.06,1.49-.53,2.07-.47.58-1.15.91-1.88.91h-.12Z"/>
      <path class="cls-6" d="M111.13,147.97c-.21-1.6-1.52-2.81-3.09-2.86l-24.41-.75c-2.04-.06-3.62,1.83-3.25,3.89l3.73,20.96c.27,1.51,1.52,2.63,3.01,2.7l23.46,1.11c2,.1,3.6-1.7,3.33-3.74l-2.78-21.32Z"/>
      <path class="cls-1" d="M144.02,171.01l-1.62-21.81c-.1-1.29-1.12-2.29-2.37-2.33l-23.34-.71h-.08c-.7,0-1.37.31-1.84.86-.47.54-.68,1.27-.59,1.99l2.71,21.47c.15,1.21,1.13,2.14,2.32,2.19l22.25,1.06h.12c.69,0,1.33-.28,1.8-.81.47-.52.7-1.2.65-1.9Z"/>
      <path class="cls-3" d="M140.06,146.09l-23.34-.71s-.07,0-.1,0c-1.93,0-3.43,1.74-3.18,3.73l2.71,21.47c.2,1.59,1.48,2.8,3.04,2.87l22.25,1.06c.05,0,.1,0,.15,0,1.86,0,3.34-1.63,3.2-3.55l-1.62-21.81c-.12-1.68-1.47-3-3.11-3.05ZM141.47,173.72l-22.25-1.06c-1.19-.06-2.17-.98-2.32-2.19l-2.71-21.47c-.09-.72.12-1.44.59-1.99.47-.54,1.14-.86,1.84-.86h.08s23.34.72,23.34.72c1.26.04,2.28,1.04,2.37,2.33l1.62,21.81c.05.71-.18,1.38-.65,1.9-.47.52-1.11.81-1.8.81h-.12Z"/>
      <path class="cls-1" d="M146.84,171.69l9.24-12.21c.54-.71.81-1.6.78-2.49l-.93-24.19-9.98,10.89c-.72.78-1.08,1.84-1,2.91l1.88,25.09Z"/>
      <path class="cls-4" d="M156.05,132.01c-.11,0-.22.04-.31.14l-10.2,11.13c-.83.9-1.25,2.12-1.15,3.36l1.91,25.45c.02.26.23.41.44.41.12,0,.25-.05.34-.17l9.46-12.49c.62-.82.94-1.84.9-2.88l-.94-24.52c-.01-.26-.22-.43-.44-.43ZM155.93,132.79l.93,24.19c.03.9-.24,1.78-.78,2.49l-9.24,12.21-1.88-25.09c-.08-1.07.28-2.13,1-2.91l9.98-10.89Z"/>
      <path class="cls-1" d="M165.53,121.99l-6.77,7.51c-.47.53-.73,1.24-.7,1.96l.95,23.82,6.17-8.36c.35-.48.54-1.07.54-1.67l-.2-23.26Z"/>
      <path class="cls-4" d="M165.71,121.1c-.1,0-.2.04-.28.13l-7.09,7.87c-.58.64-.89,1.5-.85,2.38l.97,24.36c0,.23.19.38.38.38.11,0,.22-.05.3-.15l6.49-8.79c.43-.58.66-1.29.65-2.02l-.2-23.75c0-.24-.19-.39-.38-.39ZM159.01,155.27l-.95-23.82c-.03-.72.23-1.43.7-1.96l6.77-7.51.2,23.26c0,.6-.19,1.19-.54,1.67l-6.17,8.36Z"/>
      <path class="cls-1" d="M172.98,135.85l.37-22.54-5.34,5.92c-.27.3-.42.69-.42,1.1l.07,23.22,4.99-6.75c.2-.28.31-.6.32-.95Z"/>
      <path class="cls-4" d="M173.44,112.58c-.12,0-.25.05-.35.16l-5.49,6.09c-.37.41-.57.95-.57,1.5l.07,23.48c0,.3.24.5.49.5.14,0,.28-.06.38-.2l5.14-6.96c.28-.37.43-.83.44-1.29l.38-22.77c0-.31-.24-.51-.49-.51ZM167.6,120.33c0-.41.15-.8.42-1.1l5.34-5.92-.37,22.54c0,.35-.12.67-.32.95l-4.99,6.75-.07-23.22Z"/>
      <path class="cls-6" d="M173.68,78.77l-5.95,5.56c-.45.42-.7,1.01-.7,1.63l.03,30.01c0,.45.54.67.84.34l5.53-6.1c.36-.4.56-.92.57-1.46l.49-29.59c0-.44-.5-.67-.81-.38Z"/>
      <path class="cls-6" d="M157.97,127.27l7.23-7.98c.56-.62.87-1.43.86-2.28l-.25-30.01c0-.34-.39-.51-.64-.29l-8.02,7.49c-.7.66-1.09,1.6-1.05,2.58l1.21,30.23c.01.35.43.5.66.25Z"/>
      <path class="cls-6" d="M144.75,141.83l10.23-11.11c.8-.87,1.22-2.03,1.17-3.22l-1.3-30.05c-.02-.38-.45-.56-.72-.31l-11.01,10.13c-.99.91-1.52,2.25-1.41,3.62l2.3,30.67c.03.39.49.55.75.27Z"/>
      <path class="cls-1" d="M139.42,72.89l2.29,31.62,11.05-9.84c.86-.77,1.33-1.88,1.28-3.05l-1.28-29.55-11.57,7.28c-1.19.75-1.87,2.11-1.76,3.54Z"/>
      <path class="cls-4" d="M141.59,105.24c.1,0,.2-.03.28-.11l11.25-10.02c.99-.88,1.53-2.18,1.47-3.52l-1.29-29.78c-.01-.25-.22-.43-.44-.43-.08,0-.15.02-.23.07l-11.77,7.41c-1.37.86-2.15,2.44-2.03,4.08l2.31,31.9c.02.25.22.41.44.41ZM152.75,62.07l1.28,29.55c.05,1.17-.42,2.29-1.28,3.05l-11.05,9.84-2.29-31.62c-.1-1.43.57-2.79,1.76-3.54l11.57-7.28Z"/>
      <path class="cls-1" d="M155.28,62.1l1.17,29.33,7.86-7.29c.56-.52.88-1.26.87-2.04l-.23-27.74-8.42,5.32c-.81.51-1.3,1.44-1.26,2.43Z"/>
      <path class="cls-4" d="M154.71,62.12l1.19,29.74c0,.23.19.38.38.38.09,0,.18-.03.25-.1l8.16-7.57c.68-.63,1.07-1.54,1.06-2.48l-.24-28.09c0-.23-.18-.39-.38-.39-.07,0-.13.02-.2.06l-8.71,5.5c-.99.63-1.58,1.75-1.53,2.95ZM164.96,54.36l.23,27.74c0,.78-.31,1.52-.87,2.04l-7.86,7.29-1.17-29.33c-.04-.98.44-1.91,1.26-2.43l8.42-5.32Z"/>
      <path class="cls-1" d="M173.99,74.66l.43-26.28-6.16,3.89c-.46.29-.75.82-.75,1.38l.05,27.56,5.89-5.37c.33-.3.53-.73.53-1.19Z"/>
      <path class="cls-4" d="M174.51,47.73c-.08,0-.17.02-.25.07l-6.29,3.97c-.64.4-1.02,1.11-1.02,1.88l.05,27.72c0,.3.24.5.49.5.11,0,.22-.04.32-.13l6.04-5.46c.45-.41.72-1,.73-1.61l.44-26.44c0-.3-.23-.51-.49-.51ZM167.52,53.65c0-.56.29-1.09.75-1.38l6.16-3.89-.43,26.28c0,.45-.2.89-.53,1.19l-5.89,5.37-.05-27.56Z"/>
      <path class="cls-1" d="M139.88,53.15l23.25-1.13c.96-.05,1.91-.34,2.74-.85l4.9-3.02-23.06,1.25c-.88.05-1.76.31-2.53.74l-5.3,3.02Z"/>
      <path class="cls-4" d="M138.74,53.79s.01,0,.02,0l24.4-1.19c1.06-.05,2.09-.37,3-.94l5.82-3.6c.26-.16.15-.57-.15-.57,0,0-.01,0-.02,0l-24.13,1.31c-.97.05-1.92.33-2.77.82l-6.31,3.59c-.27.16-.16.58.14.58ZM170.77,48.14l-4.9,3.02c-.83.51-1.77.81-2.74.85l-23.25,1.13,5.3-3.02c.77-.44,1.65-.7,2.53-.74l23.06-1.25Z"/>
      <path class="cls-1" d="M110.95,54.56l23.16-1.13c.9-.04,1.8-.31,2.59-.76l5.13-2.96-22.23,1.2c-.75.04-1.48.23-2.16.55l-6.5,3.1Z"/>
      <path class="cls-4" d="M109.6,55.21s.01,0,.02,0l24.53-1.19c1-.05,1.97-.34,2.84-.84l6.13-3.54c.27-.16.16-.58-.14-.58,0,0-.01,0-.02,0l-23.38,1.27c-.82.04-1.62.25-2.37.6l-7.74,3.69c-.29.14-.19.59.12.59ZM141.84,49.71l-5.13,2.96c-.79.46-1.68.72-2.59.76l-23.16,1.13,6.5-3.1c.68-.32,1.41-.51,2.16-.55l22.23-1.2Z"/>
      <path class="cls-1" d="M88.56,55.65l16.47-.8c.75-.04,1.48-.22,2.16-.54l6.54-3.08-15.21.82c-.61.03-1.21.16-1.78.39l-8.19,3.21Z"/>
      <path class="cls-4" d="M86.89,56.32s.01,0,.02,0l18.15-.88c.82-.04,1.62-.24,2.37-.59l7.83-3.68c.3-.14.19-.59-.12-.59,0,0-.01,0-.02,0l-16.61.9c-.67.04-1.33.18-1.95.42l-9.76,3.83c-.31.12-.22.6.1.6ZM113.74,51.23l-6.54,3.08c-.68.32-1.41.5-2.16.54l-16.47.8,8.19-3.21c.57-.22,1.17-.35,1.78-.39l15.21-.82Z"/>
      <path class="cls-1" d="M131.73,55.47l-23.34,1.08c-1.17.05-2.31.34-3.38.84l-11.46,5.42,25.8-1.47c1.33-.08,2.65-.46,3.82-1.11l8.57-4.77Z"/>
      <path class="cls-4" d="M132.24,54.86s-.02,0-.02,0l-23.85,1.1c-1.24.06-2.46.36-3.59.9l-12.02,5.68c-.44.21-.29.89.18.89,0,0,.02,0,.03,0l26.42-1.5c1.42-.08,2.8-.48,4.06-1.18l9.02-5.02c.42-.23.25-.87-.21-.87ZM93.55,62.81l11.46-5.42c1.07-.51,2.21-.79,3.38-.84l23.34-1.08-8.57,4.77c-1.17.65-2.49,1.03-3.82,1.11l-25.8,1.47Z"/>
      <path class="cls-1" d="M161.28,54.1l-22.99,1.06c-1.38.06-2.76.46-3.97,1.15l-7.92,4.49,23.8-1.22c1.46-.08,2.9-.52,4.15-1.28l6.92-4.2Z"/>
      <path class="cls-4" d="M161.75,53.49s-.02,0-.02,0l-23.46,1.09c-1.48.07-2.92.49-4.22,1.22l-8.36,4.74c-.41.23-.24.87.21.87,0,0,.02,0,.03,0l24.31-1.25c1.56-.08,3.07-.55,4.41-1.36l7.32-4.44c.4-.24.23-.86-.23-.86ZM126.4,60.8l7.92-4.49c1.21-.69,2.59-1.09,3.97-1.15l22.99-1.06-6.92,4.2c-1.26.76-2.69,1.21-4.15,1.28l-23.8,1.22Z"/>
      <path class="cls-1" d="M124.61,63.15c-1.69.09-3.37.59-4.84,1.43l-11.34,6.47s-.04.02-.03.07c.01.05.03.05.05.05l24.46-1.23c1.84-.09,3.64-.66,5.22-1.63l10.25-6.33s.04-.02.03-.07c-.01-.04-.03-.04-.05-.04v-.28s0,0,0,0v.29s-23.74,1.29-23.74,1.29Z"/>
      <path class="cls-4" d="M148.36,61.85s.04,0,.05.04c.01.04,0,.05-.03.07l-10.25,6.33c-1.58.97-3.38,1.54-5.22,1.63l-24.46,1.23s-.04,0-.05-.05c-.01-.04,0-.05.03-.07l11.34-6.47c1.48-.84,3.15-1.34,4.84-1.43l23.74-1.29v-.29s0-.3,0-.3h0s-.03,0-.04,0l-23.74,1.29c-1.79.1-3.53.61-5.09,1.5l-11.34,6.47c-.57.33-.34,1.21.3,1.21.01,0,.02,0,.04,0l24.45-1.23c1.94-.1,3.82-.69,5.49-1.71l10.25-6.33c.55-.34.31-1.2-.32-1.2v.59Z"/>
      <path class="cls-1" d="M116.98,63.56l-26.08,1.42c-1.44.08-2.84.44-4.15,1.07l-14.15,6.8s-.04.02-.03.07c.01.05.03.05.05.05l28.01-1.41c1.68-.08,3.34-.57,4.82-1.39l11.58-6.49s.04-.02.03-.07c-.01-.05-.03-.05-.05-.05v-.28s0,0,0,0v.29Z"/>
      <path class="cls-4" d="M86.5,65.52l-14.15,6.8c-.61.29-.4,1.23.26,1.23.01,0,.02,0,.04,0l28-1.41c1.77-.09,3.5-.59,5.06-1.46l11.58-6.49c.57-.32.34-1.21-.3-1.21v.59s.04,0,.05.05c.01.04,0,.05-.03.07l-11.58,6.49c-1.47.83-3.14,1.31-4.82,1.39l-28.01,1.41s-.04,0-.05-.05c0-.05,0-.05.03-.07l14.15-6.8c1.31-.63,2.71-.99,4.15-1.07l26.08-1.42v-.29s0-.3,0-.3h0s-.03,0-.04,0l-26.08,1.42c-1.51.08-2.99.46-4.36,1.12Z"/>
      <path class="cls-1" d="M83.23,65.4l-21.22,1.16c-1.18.06-2.34.32-3.44.76l-18.04,7.16s-.04.02-.04.07c0,.05.03.05.05.05l24.14-1.18c1.45-.07,2.85-.42,4.16-1.05l14.42-6.84s.04-.02.03-.07c-.01-.05-.03-.05-.05-.05v-.28s0,0,0,0v.29Z"/>
      <path class="cls-4" d="M40.54,75.16s.02,0,.04,0l24.13-1.18c1.51-.07,3-.45,4.37-1.1l14.42-6.84c.62-.29.4-1.23-.26-1.23v.59s.04,0,.05.05c0,.05,0,.05-.03.07l-14.42,6.84c-1.31.62-2.71.98-4.16,1.05l-24.14,1.18s-.04,0-.05-.05c0-.05,0-.05.04-.07l18.04-7.16c1.1-.44,2.26-.69,3.44-.76l21.22-1.16v-.29s0-.3,0-.3h0s-.03,0-.04,0l-21.22,1.16c-1.24.07-2.46.34-3.62.79l-18.04,7.16c-.65.26-.46,1.25.22,1.25Z"/>
      <path class="cls-1" d="M66.12,64.36l20.63-1.2c1.12-.07,2.21-.34,3.23-.82l11.78-5.49-17.01.79c-.95.04-1.89.24-2.79.59l-15.85,6.13Z"/>
      <path class="cls-4" d="M65.35,64.99s.02,0,.03,0l21.4-1.24c1.19-.07,2.35-.36,3.44-.87l12.34-5.75c.45-.21.3-.89-.18-.89,0,0-.02,0-.02,0l-17.61.81c-1.01.05-2.01.26-2.96.62l-16.57,6.41c-.47.18-.34.9.15.9ZM101.76,56.85l-11.78,5.49c-1.02.48-2.11.75-3.23.82l-20.63,1.2,15.85-6.13c.89-.35,1.83-.54,2.79-.59l17.01-.79Z"/>
    </g>
  </g>
  <g id="Dimensions">
    <text class="cls-5" transform="translate(136.75 234.58) scale(1.02 1)"><tspan x="0" y="0">CIRCLE LOGO</tspan></text>
  </g>
</svg>