<?xml version="1.0" encoding="UTF-8"?>
<svg id="Layer_2" data-name="Layer 2" xmlns="http://www.w3.org/2000/svg" viewBox="0 0 287.5 53">
  <defs>
    <style>
      .cls-1 {
        fill: #fff;
      }

      .cls-2 {
        fill: none;
      }

      .cls-3 {
        fill: #231f20;
      }

      .cls-4 {
        fill: #58595b;
      }

      .cls-5 {
        fill: #003d93;
      }
    </style>
  </defs>
  <g id="Layer_1-2" data-name="Layer 1">
    <g>
      <g>
        <path class="cls-5" d="M77.09,30.53c0-.66-.24-1.17-.71-1.53s-1.32-.73-2.54-1.13-2.19-.78-2.9-1.17c-1.94-1.05-2.91-2.46-2.91-4.23,0-.92.26-1.74.78-2.47s1.27-1.29,2.24-1.69,2.07-.61,3.28-.61,2.31.22,3.27.66,1.7,1.06,2.23,1.87.79,1.72.79,2.74h-3.53c0-.78-.25-1.39-.74-1.82s-1.19-.65-2.08-.65-1.53.18-2.01.55-.72.84-.72,1.44c0,.55.28,1.02.84,1.4s1.38.73,2.47,1.06c2.01.6,3.47,1.35,4.38,2.24s1.38,2,1.38,3.33c0,1.48-.56,2.64-1.68,3.48s-2.63,1.26-4.52,1.26c-1.32,0-2.52-.24-3.6-.72s-1.91-1.14-2.47-1.98-.85-1.81-.85-2.91h3.54c0,1.88,1.13,2.83,3.38,2.83.84,0,1.49-.17,1.96-.51s.71-.81.71-1.42Z"/>
        <path class="cls-5" d="M94,28.78c0,1.95-.44,3.52-1.33,4.69s-2.09,1.76-3.6,1.76c-1.28,0-2.32-.45-3.11-1.34v5.98h-3.4v-17.56h3.15l.12,1.24c.82-.98,1.9-1.48,3.22-1.48,1.57,0,2.79.58,3.66,1.73s1.3,2.75,1.3,4.78v.18ZM90.6,28.54c0-1.18-.21-2.09-.63-2.73s-1.03-.96-1.83-.96c-1.07,0-1.8.41-2.2,1.22v5.19c.42.84,1.16,1.25,2.22,1.25,1.62,0,2.43-1.32,2.43-3.97Z"/>
        <path class="cls-5" d="M101.71,35.24c-1.86,0-3.38-.57-4.55-1.71s-1.76-2.66-1.76-4.56v-.33c0-1.27.25-2.41.74-3.42s1.19-1.78,2.1-2.32,1.94-.81,3.1-.81c1.74,0,3.11.55,4.11,1.64s1.5,2.65,1.5,4.65v1.38h-8.1c.11.83.44,1.49.99,1.99s1.25.75,2.1.75c1.31,0,2.33-.47,3.07-1.42l1.67,1.86c-.51.72-1.2,1.28-2.07,1.68s-1.83.6-2.89.6ZM101.32,24.82c-.67,0-1.22.23-1.64.68s-.69,1.11-.81,1.95h4.72v-.27c-.02-.75-.22-1.34-.61-1.75s-.95-.62-1.67-.62Z"/>
        <path class="cls-5" d="M114.48,35.24c-1.86,0-3.38-.57-4.55-1.71s-1.76-2.66-1.76-4.56v-.33c0-1.27.25-2.41.74-3.42s1.19-1.78,2.1-2.32,1.94-.81,3.1-.81c1.74,0,3.11.55,4.11,1.64s1.5,2.65,1.5,4.65v1.38h-8.1c.11.83.44,1.49.99,1.99s1.25.75,2.1.75c1.31,0,2.33-.47,3.07-1.42l1.67,1.86c-.51.72-1.2,1.28-2.07,1.68s-1.83.6-2.89.6ZM114.09,24.82c-.67,0-1.22.23-1.64.68s-.69,1.11-.81,1.95h4.72v-.27c-.02-.75-.22-1.34-.61-1.75s-.95-.62-1.67-.62Z"/>
        <path class="cls-5" d="M120.87,28.57c0-1.98.44-3.55,1.33-4.72s2.11-1.76,3.65-1.76c1.24,0,2.26.46,3.07,1.38v-6.47h3.41v18.01h-3.07l-.16-1.35c-.85,1.06-1.94,1.58-3.27,1.58-1.5,0-2.7-.59-3.6-1.76s-1.36-2.81-1.36-4.91ZM124.27,28.82c0,1.19.21,2.1.62,2.74.42.63,1.02.95,1.81.95,1.05,0,1.79-.44,2.22-1.33v-5.01c-.42-.88-1.16-1.33-2.2-1.33-1.64,0-2.46,1.33-2.46,3.98Z"/>
        <path class="cls-5" d="M140.01,32.51c.63,0,1.14-.17,1.53-.52s.6-.8.61-1.37h3.18c0,.86-.24,1.65-.71,2.36s-1.09,1.27-1.9,1.66-1.69.59-2.66.59c-1.82,0-3.25-.58-4.3-1.73s-1.57-2.75-1.57-4.78v-.22c0-1.95.52-3.51,1.56-4.68s2.47-1.75,4.29-1.75c1.59,0,2.87.45,3.83,1.35s1.45,2.1,1.46,3.6h-3.18c-.02-.66-.22-1.2-.61-1.61-.39-.41-.91-.62-1.55-.62-.79,0-1.39.29-1.79.86-.4.58-.61,1.51-.61,2.8v.35c0,1.31.2,2.25.6,2.82s1.01.86,1.82.86Z"/>
        <path class="cls-5" d="M154.65,33.72c-.84,1.02-2,1.52-3.48,1.52-1.36,0-2.4-.39-3.12-1.17s-1.08-1.93-1.1-3.43v-8.31h3.4v8.2c0,1.32.6,1.98,1.81,1.98s1.94-.4,2.37-1.2v-8.99h3.41v12.68h-3.2l-.09-1.29Z"/>
        <path class="cls-5" d="M171.72,28.78c0,2.03-.43,3.62-1.3,4.75s-2.08,1.71-3.64,1.71c-1.38,0-2.48-.53-3.3-1.58l-.15,1.35h-3.06v-18.01h3.4v6.46c.78-.91,1.81-1.37,3.09-1.37,1.55,0,2.77.57,3.65,1.71s1.32,2.74,1.32,4.8v.19ZM168.32,28.54c0-1.28-.2-2.22-.61-2.81s-1.01-.89-1.82-.89c-1.08,0-1.83.44-2.23,1.32v5.01c.42.89,1.17,1.34,2.26,1.34s1.82-.54,2.16-1.62c.16-.52.25-1.3.25-2.36Z"/>
        <path class="cls-5" d="M173.55,19.04c0-.51.17-.93.51-1.25s.81-.49,1.39-.49,1.04.16,1.39.49.52.75.52,1.25-.17.94-.52,1.27-.81.49-1.38.49-1.03-.16-1.38-.49-.52-.75-.52-1.27ZM177.15,35.01h-3.41v-12.68h3.41v12.68Z"/>
        <path class="cls-5" d="M182.84,22.32l.11,1.47c.91-1.13,2.13-1.7,3.66-1.7,1.35,0,2.35.39,3.01,1.18s1,1.97,1.01,3.54v8.19h-3.4v-8.11c0-.72-.16-1.24-.47-1.56s-.83-.49-1.56-.49c-.96,0-1.67.41-2.15,1.22v8.94h-3.4v-12.68h3.2Z"/>
        <path class="cls-5" d="M192.46,28.57c0-1.95.46-3.51,1.39-4.7s2.18-1.78,3.75-1.78c1.39,0,2.48.48,3.26,1.43l.14-1.2h3.08v12.26c0,1.11-.25,2.07-.76,2.9s-1.22,1.45-2.13,1.88-1.99.64-3.22.64c-.93,0-1.84-.19-2.73-.56s-1.56-.85-2.01-1.44l1.5-2.06c.85.95,1.87,1.42,3.08,1.42.9,0,1.6-.24,2.1-.72s.75-1.16.75-2.05v-.68c-.78.88-1.81,1.32-3.09,1.32-1.53,0-2.76-.6-3.71-1.79s-1.42-2.77-1.42-4.74v-.14ZM195.85,28.82c0,1.15.23,2.05.69,2.71.46.65,1.1.98,1.9.98,1.03,0,1.77-.39,2.22-1.16v-5.34c-.45-.77-1.19-1.16-2.2-1.16-.81,0-1.46.33-1.92,1s-.7,1.66-.7,2.98Z"/>
        <path class="cls-5" d="M222.72,28.03h-6.77v6.98h-3.53v-17.07h11.14v2.85h-7.62v4.41h6.77v2.84Z"/>
        <path class="cls-5" d="M225.12,19.04c0-.51.17-.93.51-1.25s.81-.49,1.39-.49,1.04.16,1.39.49.52.75.52,1.25-.17.94-.52,1.27-.81.49-1.38.49-1.03-.16-1.38-.49-.52-.75-.52-1.27ZM228.73,35.01h-3.41v-12.68h3.41v12.68Z"/>
        <path class="cls-5" d="M234.41,22.32l.11,1.47c.91-1.13,2.13-1.7,3.66-1.7,1.35,0,2.35.39,3.01,1.18s1,1.97,1.01,3.54v8.19h-3.4v-8.11c0-.72-.16-1.24-.47-1.56s-.83-.49-1.56-.49c-.96,0-1.67.41-2.15,1.22v8.94h-3.4v-12.68h3.2Z"/>
        <path class="cls-5" d="M248.11,35.01h-3.41v-18.01h3.41v18.01Z"/>
        <path class="cls-5" d="M258.04,35.01c-.16-.3-.27-.68-.34-1.14-.82.91-1.89,1.37-3.21,1.37-1.25,0-2.28-.36-3.1-1.08s-1.23-1.63-1.23-2.72c0-1.34.5-2.38,1.5-3.09s2.44-1.08,4.33-1.09h1.56v-.73c0-.59-.15-1.06-.45-1.41s-.78-.53-1.43-.53c-.57,0-1.02.14-1.35.41s-.49.65-.49,1.13h-3.4c0-.73.23-1.41.68-2.04s1.1-1.12,1.93-1.47,1.76-.53,2.8-.53c1.57,0,2.81.39,3.73,1.18s1.38,1.89,1.38,3.31v5.5c0,1.2.18,2.11.51,2.73v.2h-3.43ZM255.23,32.65c.5,0,.96-.11,1.39-.33s.74-.52.94-.9v-2.18h-1.27c-1.7,0-2.61.59-2.71,1.76v.2c-.01.42.14.77.43,1.04s.71.41,1.22.41Z"/>
        <path class="cls-5" d="M266.46,22.32l.11,1.47c.91-1.13,2.13-1.7,3.66-1.7,1.35,0,2.35.39,3.01,1.18s1,1.97,1.01,3.54v8.19h-3.4v-8.11c0-.72-.16-1.24-.47-1.56s-.83-.49-1.56-.49c-.96,0-1.67.41-2.15,1.22v8.94h-3.4v-12.68h3.2Z"/>
        <path class="cls-5" d="M276.04,28.57c0-1.98.44-3.55,1.33-4.72s2.11-1.76,3.65-1.76c1.24,0,2.26.46,3.07,1.38v-6.47h3.41v18.01h-3.07l-.16-1.35c-.85,1.06-1.94,1.58-3.27,1.58-1.5,0-2.7-.59-3.6-1.76s-1.36-2.81-1.36-4.91ZM279.44,28.82c0,1.19.21,2.1.62,2.74.42.63,1.02.95,1.81.95,1.05,0,1.79-.44,2.22-1.33v-5.01c-.42-.88-1.16-1.33-2.2-1.33-1.64,0-2.46,1.33-2.46,3.98Z"/>
      </g>
      <g>
        <polygon class="cls-2" points="8.19 40.3 8.17 40.05 8.17 40.3 8.19 40.3"/>
        <polygon class="cls-2" points="34.99 41.09 34.98 40.84 34.98 40.84 34.98 41.09 34.99 41.09"/>
        <path class="cls-1" d="M3.98,24.96l9.74-.15c.26,0,.5-.12.66-.32.16-.2.23-.46.18-.72l-2.04-11.09c-.08-.42-.44-.72-.86-.72h-.04s-10.29.48-10.29.48c-.26.01-.5.14-.66.35-.16.21-.21.48-.15.73l2.6,10.75c.1.4.45.67.85.67Z"/>
        <path class="cls-3" d="M4,25.46l9.73-.15c.85-.01,1.49-.79,1.33-1.63l-2.04-11.09c-.12-.66-.69-1.13-1.35-1.13-.02,0-.04,0-.07,0l-10.29.48c-.86.04-1.48.86-1.27,1.7l2.6,10.75c.15.62.7,1.05,1.34,1.05,0,0,.01,0,.02,0ZM.68,12.81c.16-.21.4-.34.66-.35l10.29-.48h.04c.42,0,.78.3.86.72l2.04,11.09c.05.25-.02.52-.18.72-.16.2-.41.32-.66.32l-9.74.15c-.41,0-.76-.28-.85-.67L.53,13.54c-.06-.26,0-.52.15-.73Z"/>
        <path class="cls-5" d="M14.11,12.92l2.05,11.21c.12.66.7,1.14,1.37,1.13l11.28-.17c.82-.01,1.45-.74,1.34-1.56l-1.55-11.59c-.09-.71-.72-1.23-1.43-1.19l-11.77.55c-.83.04-1.44.8-1.29,1.62Z"/>
        <path class="cls-1" d="M30.39,11.38c-.16.19-.23.43-.2.68l1.52,11.71c.06.44.43.76.87.76l10.87-.16c.25,0,.47-.11.64-.29.17-.18.24-.42.22-.66l-1.03-12.08c-.04-.45-.42-.8-.87-.8h-.04s-11.35.53-11.35.53c-.25.01-.47.12-.63.31Z"/>
        <path class="cls-3" d="M29.7,12.12l1.52,11.71c.09.69.67,1.2,1.36,1.2,0,0,.01,0,.02,0l10.86-.16c.8-.01,1.42-.7,1.35-1.49l-1.03-12.08c-.06-.72-.66-1.26-1.37-1.26-.02,0-.04,0-.07,0l-11.35.53c-.8.04-1.4.75-1.3,1.55ZM42.41,10.53c.45,0,.83.35.87.8l1.03,12.08c.02.25-.06.48-.22.66-.16.18-.39.28-.64.29l-10.87.16c-.44,0-.81-.33-.87-.76l-1.52-11.71c-.03-.25.04-.49.2-.68.16-.19.38-.3.63-.31l11.35-.53h.04Z"/>
        <path class="cls-5" d="M34.48,39.99l10.18.27c.82.02,1.47-.67,1.41-1.49l-.94-11.68c-.06-.72-.67-1.28-1.39-1.27l-10.69.16c-.82.01-1.45.74-1.34,1.55l1.46,11.25c.09.67.65,1.18,1.33,1.2Z"/>
        <path class="cls-5" d="M18.79,38.48c.12.64.67,1.11,1.32,1.13l10.63.28c.85.02,1.51-.72,1.4-1.56l-1.49-11.09c-.09-.69-.69-1.2-1.38-1.19l-11.1.17c-.85.01-1.49.79-1.33,1.63l1.95,10.65Z"/>
        <path class="cls-5" d="M16.28,39.51c.87.02,1.55-.77,1.39-1.63l-1.93-10.49c-.12-.66-.7-1.14-1.37-1.13l-9.51.14c-.88.01-1.53.84-1.32,1.7l2.45,10.12c.15.61.68,1.04,1.3,1.05l8.99.24Z"/>
        <path class="cls-1" d="M8.17,40.55c-.27,0-.52.12-.69.33-.17.21-.23.49-.16.75l2.07,8.56c.09.38.42.65.81.67l8.31.38h0c.3,0,.54-.11.71-.31.17-.2.24-.46.19-.72l-1.6-8.68c-.07-.4-.43-.71-.84-.72l-8.79-.26v-.25s-.03,0-.03,0v.25Z"/>
        <path class="cls-3" d="M18.32,41.44c-.12-.64-.66-1.11-1.31-1.13l-8.79-.26s-.03,0-.04,0v.25s.03.25.03.25l8.79.26c.41.01.76.31.84.72l1.6,8.68c.05.26-.02.52-.19.72-.17.2-.41.31-.71.31h0l-8.31-.38c-.39-.02-.72-.29-.81-.67l-2.07-8.56c-.06-.26,0-.54.16-.75.17-.21.42-.33.69-.33v-.5c-.89,0-1.55.83-1.34,1.7l2.07,8.56c.14.6.66,1.02,1.27,1.05l8.31.38s.04,0,.07,0c.85,0,1.51-.78,1.35-1.63l-1.6-8.68Z"/>
        <path class="cls-5" d="M32.63,41.93c-.09-.67-.65-1.17-1.32-1.19l-10.46-.31c-.88-.03-1.55.76-1.39,1.63l1.6,8.75c.12.63.65,1.1,1.29,1.13l10.06.47c.86.04,1.54-.71,1.43-1.56l-1.19-8.9Z"/>
        <path class="cls-1" d="M34.98,41.34c-.25,0-.49.11-.66.3-.17.19-.24.44-.21.69l1.16,8.96c.05.42.4.74.83.76l9.54.44h0c.29,0,.51-.1.68-.28.17-.18.25-.42.23-.66l-.69-9.1c-.03-.45-.4-.8-.85-.81l-10-.3v-.25s-.03,0-.03,0v.25Z"/>
        <path class="cls-3" d="M45.02,41.14l-10-.3s-.03,0-.04,0v.25s.03.25.03.25l10,.3c.45.01.81.36.85.81l.69,9.1c.02.25-.06.48-.23.66-.17.18-.39.28-.68.28h0l-9.54-.44c-.43-.02-.77-.34-.83-.76l-1.16-8.96c-.03-.25.04-.5.21-.69.17-.19.41-.3.66-.3v-.5c-.83,0-1.47.73-1.36,1.55l1.16,8.96c.09.66.63,1.17,1.3,1.2l9.54.44s.04,0,.07,0c.8,0,1.43-.68,1.37-1.48l-.69-9.1c-.05-.7-.63-1.25-1.33-1.27Z"/>
        <path class="cls-1" d="M51.73,35.85l-4.1,4.36c-.29.3-.43.72-.4,1.13l.79,10.2,3.79-4.88c.22-.28.33-.62.31-.97l-.39-9.84Z"/>
        <path class="cls-4" d="M51.88,35.27s-.1.02-.13.06l-4.37,4.64c-.35.38-.53.89-.49,1.4l.82,10.62c0,.11.1.17.19.17.05,0,.11-.02.15-.07l4.05-5.21c.27-.34.4-.77.39-1.2l-.4-10.23c0-.11-.09-.18-.19-.18ZM48.01,51.54l-.79-10.2c-.03-.42.11-.83.4-1.13l4.1-4.36.39,9.84c.01.35-.1.7-.31.97l-3.79,4.88Z"/>
        <path class="cls-1" d="M55.84,31.35l-2.72,2.94c-.18.2-.28.47-.27.74l.4,9.65,2.47-3.25c.14-.18.21-.4.21-.63l-.08-9.44Z"/>
        <path class="cls-4" d="M56.02,30.72s-.08.02-.12.05l-3.04,3.28c-.25.27-.38.63-.37.99l.42,10.17c0,.1.08.16.16.16.05,0,.09-.02.13-.06l2.78-3.67c.18-.24.28-.54.28-.85l-.09-9.91c0-.1-.08-.16-.16-.16ZM53.24,44.68l-.4-9.65c-.01-.27.09-.54.27-.74l2.72-2.94.08,9.44c0,.23-.07.45-.21.63l-2.47,3.25Z"/>
        <path class="cls-1" d="M57.09,30c-.1.11-.15.24-.15.39l.03,9.38,1.95-2.57c.07-.1.11-.21.12-.33l.16-9.13-2.1,2.27Z"/>
        <path class="cls-4" d="M59.33,27.16c-.05,0-.11.02-.15.07l-2.35,2.54c-.16.17-.25.39-.24.63l.03,9.8c0,.13.1.21.21.21.06,0,.12-.03.16-.08l2.2-2.9c.12-.16.18-.34.19-.54l.16-9.5c0-.13-.1-.21-.21-.21ZM58.91,37.2l-1.95,2.57-.03-9.38c0-.14.05-.28.15-.39l2.1-2.27-.16,9.13c0,.12-.04.24-.12.33Z"/>
        <path class="cls-5" d="M59.43,13.05l-2.55,2.32c-.19.17-.3.42-.3.68v12.52c.01.19.24.28.37.14l2.37-2.55c.15-.17.24-.38.25-.61l.21-12.35c0-.18-.21-.28-.35-.16Z"/>
        <path class="cls-5" d="M52.7,33.29l3.1-3.33c.24-.26.37-.6.37-.95l-.11-12.52c0-.14-.17-.21-.27-.12l-3.44,3.13c-.3.27-.47.67-.45,1.08l.52,12.61c0,.14.18.21.28.1Z"/>
        <path class="cls-5" d="M47.04,39.37l4.38-4.63c.34-.36.52-.85.5-1.34l-.56-12.54c0-.16-.19-.24-.31-.13l-4.72,4.23c-.43.38-.65.94-.61,1.51l.99,12.8c.01.16.21.23.32.11Z"/>
        <path class="cls-1" d="M44.86,10.59l.96,12.99,4.57-3.97c.35-.3.53-.73.51-1.19l-.54-12.15-4.81,2.95c-.48.29-.75.82-.71,1.38Z"/>
        <path class="cls-4" d="M45.68,24.1s.08-.01.12-.05l4.82-4.18c.42-.37.66-.91.63-1.47l-.55-12.43c0-.11-.09-.18-.19-.18-.03,0-.07,0-.1.03l-5.04,3.09c-.59.36-.92,1.02-.87,1.7l.99,13.31c0,.1.1.17.19.17ZM50.37,6.26l.54,12.15c.02.46-.17.89-.51,1.19l-4.57,3.97-.96-12.99c-.04-.56.23-1.09.71-1.38l4.81-2.95Z"/>
        <path class="cls-1" d="M51.66,6.09l.49,12.01,3.2-2.89c.22-.2.34-.48.34-.77l-.1-11.39-3.45,2.12c-.32.19-.5.55-.49.92Z"/>
        <path class="cls-4" d="M51.31,6.1l.51,12.41c0,.09.08.16.16.16.04,0,.08-.01.11-.04l3.5-3.16c.29-.26.46-.64.45-1.04l-.1-11.72c0-.09-.08-.16-.16-.16-.03,0-.06,0-.08.02l-3.73,2.29c-.42.26-.68.73-.66,1.23ZM55.59,3.05l.1,11.39c0,.29-.12.58-.34.77l-3.2,2.89-.49-12.01c-.02-.37.17-.72.49-.92l3.45-2.12Z"/>
        <path class="cls-1" d="M59.65.56l-2.48,1.52c-.17.1-.27.29-.27.49l.02,11.25,2.35-2.07c.12-.11.19-.26.19-.42l.18-10.77Z"/>
        <path class="cls-4" d="M59.79.1s-.07,0-.11.03l-2.7,1.66c-.27.17-.44.46-.44.78l.02,11.57c0,.12.1.21.21.21.05,0,.1-.02.14-.05l2.59-2.28c.19-.17.31-.42.31-.67l.19-11.03c0-.12-.1-.21-.21-.21ZM56.92,13.82l-.02-11.25c0-.2.1-.38.27-.49l2.48-1.52-.18,10.77c0,.16-.07.31-.19.42l-2.35,2.07Z"/>
        <path class="cls-1" d="M45.4,2.23l9.51-.45c.4-.02.78-.14,1.12-.34l1.74-1.04-9.46.5c-.36.02-.72.12-1.04.3l-1.88,1.04Z"/>
        <path class="cls-4" d="M44.46,2.63s0,0,0,0l10.46-.5c.45-.02.9-.16,1.29-.39l2.5-1.5c.11-.07.06-.24-.07-.24,0,0,0,0,0,0l-10.34.55c-.42.02-.82.14-1.19.34l-2.7,1.5c-.12.06-.07.24.06.24ZM57.77.4l-1.74,1.04c-.34.2-.73.32-1.12.34l-9.51.45,1.88-1.04c.32-.18.68-.28,1.04-.3l9.46-.5Z"/>
        <path class="cls-1" d="M33.09,2.82l9.39-.45c.37-.02.74-.12,1.06-.31l1.8-1.01-9.08.48c-.31.02-.61.09-.88.22l-2.29,1.07Z"/>
        <path class="cls-4" d="M31.97,3.22s0,0,0,0l10.51-.5c.43-.02.84-.14,1.22-.35l2.63-1.48c.12-.07.07-.24-.06-.24,0,0,0,0,0,0l-10.02.53c-.35.02-.7.1-1.01.25l-3.32,1.54c-.13.06-.08.25.05.25ZM45.34,1.05l-1.8,1.01c-.32.18-.69.29-1.06.31l-9.39.45,2.29-1.07c.28-.13.58-.2.88-.22l9.08-.48Z"/>
        <path class="cls-1" d="M23.61,3.27l6.4-.3c.31-.01.61-.09.89-.22l2.3-1.05-5.96.31c-.25.01-.5.07-.73.15l-2.89,1.1Z"/>
        <path class="cls-4" d="M22.24,3.68s0,0,0,0l7.78-.37c.35-.02.7-.1,1.02-.25l3.35-1.54c.13-.06.08-.25-.05-.25,0,0,0,0,0,0l-7.12.38c-.29.02-.57.07-.84.18l-4.18,1.6c-.13.05-.1.25.04.25ZM33.2,1.69l-2.3,1.05c-.28.13-.58.2-.89.22l-6.4.3,2.89-1.1c.23-.09.48-.14.73-.15l5.96-.31Z"/>
        <path class="cls-1" d="M41,3.45l-9.54.43c-.49.02-.96.14-1.41.34l-4.41,2.03,10.5-.58c.55-.03,1.1-.19,1.59-.45l3.27-1.77Z"/>
        <path class="cls-4" d="M41.67,3.07s0,0-.01,0l-10.22.46c-.53.02-1.06.15-1.54.37l-5.15,2.37c-.19.09-.12.37.08.37,0,0,0,0,.01,0l11.32-.63c.61-.03,1.2-.2,1.74-.49l3.86-2.09c.18-.1.11-.36-.09-.36ZM25.64,6.25l4.41-2.03c.45-.21.92-.32,1.41-.34l9.54-.43-3.27,1.77c-.49.26-1.04.42-1.59.45l-10.5.58Z"/>
        <path class="cls-1" d="M53.7,2.88l-9.43.42c-.58.03-1.15.19-1.66.47l-2.99,1.65,9.74-.49c.61-.03,1.21-.21,1.73-.52l2.6-1.54Z"/>
        <path class="cls-4" d="M54.32,2.5s0,0,0,0l-10.05.45c-.63.03-1.25.2-1.81.51l-3.58,1.98c-.18.1-.1.36.09.36,0,0,0,0,.01,0l10.42-.52c.67-.03,1.32-.23,1.89-.57l3.14-1.85c.17-.1.1-.36-.1-.36ZM39.63,5.42l2.99-1.65c.51-.28,1.08-.44,1.66-.47l9.43-.42-2.6,1.54c-.52.31-1.12.49-1.73.52l-9.74.49Z"/>
        <path class="cls-1" d="M31.82,9.75l10.13-.5c.77-.04,1.53-.27,2.19-.67l4.12-2.47-9.85.52c-.71.04-1.41.24-2.03.58l-4.56,2.53Z"/>
        <path class="cls-4" d="M31.49,10.12l10.48-.51c.83-.04,1.64-.29,2.35-.72l4.39-2.64c.24-.14.13-.5-.14-.5,0,0-.01,0-.02,0l-10.17.54c-.77.04-1.51.26-2.18.63l-4.86,2.7c-.24.14-.14.5.13.5,0,0,.01,0,.02,0ZM48.26,6.11l-4.12,2.47c-.66.4-1.42.63-2.19.67l-10.13.5,4.56-2.53c.62-.34,1.32-.55,2.03-.58l9.85-.52Z"/>
        <path class="cls-1" d="M16.53,10.5l11.59-.57c.7-.03,1.4-.23,2.02-.57l4.65-2.54-10.82.57c-.61.03-1.19.18-1.74.44l-5.69,2.66Z"/>
        <path class="cls-4" d="M22.07,7.52l-6.07,2.84c-.26.12-.17.51.11.51,0,0,.01,0,.02,0l12-.59c.76-.04,1.5-.25,2.17-.61l4.96-2.71c.25-.13.15-.51-.13-.51,0,0-.01,0-.02,0l-11.18.59c-.65.03-1.28.19-1.87.47ZM34.78,6.83l-4.65,2.54c-.62.34-1.32.53-2.02.57l-11.59.57,5.69-2.66c.55-.26,1.13-.4,1.74-.44l10.82-.57Z"/>
        <path class="cls-1" d="M2.87,11.17l9.84-.47c.61-.03,1.19-.17,1.74-.43l5.8-2.68-8.67.46c-.49.03-.98.13-1.44.31l-7.27,2.81Z"/>
        <path class="cls-4" d="M2.37,11.55s.01,0,.02,0l10.34-.49c.65-.03,1.28-.19,1.87-.46l6.18-2.85c.26-.12.17-.51-.11-.51,0,0-.01,0-.02,0l-9.1.48c-.53.03-1.05.14-1.55.33l-7.73,2.99c-.28.11-.2.52.09.52ZM20.26,7.6l-5.8,2.68c-.55.25-1.14.4-1.74.43l-9.84.47,7.27-2.81c.46-.18.95-.28,1.44-.31l8.67-.46Z"/>
        <path class="cls-1" d="M14.02,6.89l8.15-.46c.47-.03.92-.14,1.35-.33l4.55-2.07-6.74.3c-.4.02-.79.1-1.16.24l-6.15,2.32Z"/>
        <path class="cls-4" d="M13.01,7.3s0,0,.01,0l9.17-.52c.51-.03,1.01-.15,1.47-.36l5.29-2.4c.19-.09.13-.37-.08-.37,0,0,0,0-.01,0l-7.55.34c-.43.02-.86.11-1.27.26l-7.1,2.68c-.2.08-.14.38.07.38ZM28.07,4.03l-4.55,2.07c-.43.19-.88.31-1.35.33l-8.15.46,6.15-2.32c.37-.14.76-.22,1.16-.24l6.74-.3Z"/>
      </g>
    </g>
  </g>
</svg>